<?xml version="1.0" standalone="no"?>
<!DOCTYPE svg PUBLIC "-//W3C//DTD SVG 1.1//EN" "http://www.w3.org/Graphics/SVG/1.1/DTD/svg11.dtd" >
<svg xmlns="http://www.w3.org/2000/svg">
<metadata>Generated by IcoMoon</metadata>
<defs>
<font id="icomoon" horiz-adv-x="1024">
<font-face units-per-em="1024" ascent="960" descent="-64" />
<missing-glyph horiz-adv-x="1024" />
<glyph unicode="&#x20;" horiz-adv-x="512" d="" />
<glyph unicode="&#xe900;" glyph-name="abb_add" d="M0 448c0-35.2 28.8-64 64-64h374.4c6.4 0 9.6-3.2 9.6-9.6v-374.4c0-35.2 28.8-64 64-64s64 28.8 64 64v374.4c0 6.4 3.2 9.6 9.6 9.6h374.4c35.2 0 64 28.8 64 64s-28.8 64-64 64h-374.4c-6.4 0-9.6 3.2-9.6 9.6v374.4c0 35.2-28.8 64-64 64s-64-28.8-64-64v-374.4c0-6.4-3.2-9.6-9.6-9.6h-374.4c-35.2 0-64-28.8-64-64z" />
<glyph unicode="&#xe901;" glyph-name="abb_addfile" d="M854.4 640c0 22.4-19.2 41.6-41.6 41.6h-300.8c-22.4 0-41.6-19.2-41.6-41.6s19.2-41.6 41.6-41.6h297.6c25.6 0 44.8 19.2 44.8 41.6zM534.4 489.6c-22.4 0-41.6-19.2-41.6-41.6s19.2-41.6 41.6-41.6h169.6c22.4 0 41.6 19.2 41.6 41.6s-19.2 41.6-41.6 41.6h-169.6zM998.4 832l-102.4 102.4c-16 16-38.4 25.6-60.8 25.6h-492.8c-48 0-86.4-38.4-86.4-86.4v-310.4c0-6.4 3.2-9.6 9.6-9.6 16 0 41.6 0 64-3.2 6.4 0 9.6 3.2 12.8 9.6 0 0 0 0 0 0v294.4c0 12.8 9.6 22.4 22.4 22.4h464c6.4 0 9.6-3.2 16-6.4l89.6-89.6c3.2-3.2 6.4-9.6 6.4-16v-572.8c0-12.8-9.6-22.4-22.4-22.4h-291.2c-6.4 0-9.6-3.2-9.6-9.6-3.2-22.4-9.6-41.6-16-60.8-3.2-6.4 0-12.8 6.4-12.8 0 0 3.2 0 3.2 0h332.8c48 0 86.4 38.4 86.4 86.4v598.4c-6.4 22.4-16 44.8-32 60.8zM278.4 489.6c-153.6 0-278.4-124.8-278.4-278.4s124.8-275.2 278.4-275.2 278.4 124.8 278.4 278.4c-3.2 153.6-124.8 275.2-278.4 275.2zM384 182.4h-64c-6.4 0-9.6-3.2-9.6-9.6v-64c0-19.2-12.8-32-32-32s-32 12.8-32 32v64c0 6.4-3.2 9.6-9.6 9.6h-64c-19.2 0-32 12.8-32 32s12.8 32 32 32h64c6.4 0 9.6 3.2 9.6 9.6v64c0 19.2 12.8 32 32 32s32-12.8 32-32v-64c0-6.4 3.2-9.6 9.6-9.6h64c19.2 0 32-12.8 32-32s-12.8-32-32-32z" />
<glyph unicode="&#xe902;" glyph-name="abb_arrow-left" d="M441.6 451.2c0 28.8 12.8 60.8 35.2 80l406.4 409.6c28.8 28.8 76.8 25.6 105.6-3.2 25.6-28.8 25.6-73.6 0-102.4l-371.2-374.4c-3.2-3.2-3.2-12.8 0-16l371.2-371.2c28.8-28.8 25.6-76.8-3.2-105.6-28.8-25.6-73.6-25.6-102.4 0l-409.6 403.2c-19.2 19.2-32 51.2-32 80zM3.2 451.2c0 28.8 12.8 60.8 35.2 80l409.6 409.6c28.8 28.8 76.8 25.6 105.6-3.2 25.6-28.8 25.6-73.6 0-102.4l-371.2-374.4c-3.2-3.2-3.2-12.8 0-16v0l371.2-371.2c28.8-28.8 25.6-76.8-3.2-105.6-28.8-32-70.4-32-102.4-6.4l-409.6 409.6c-22.4 19.2-35.2 51.2-35.2 80z" />
<glyph unicode="&#xe903;" glyph-name="abb_arrow-left1" d="M716.8 950.4l-534.4-467.2c-16-16-16-48 0-64v0l531.2-467.2c9.6-9.6 22.4-12.8 28.8-9.6 12.8 0 22.4 9.6 28.8 16l64 80c9.6 9.6 12.8 22.4 9.6 28.8 0 12.8-3.2 22.4-16 28.8l-400 352c-3.2 3.2-3.2 12.8 0 16l403.2 352c12.8-3.2 22.4 9.6 22.4 16 0 12.8-3.2 22.4-9.6 28.8l-67.2 80c-9.6 9.6-19.2 19.2-32 19.2-9.6 0-22.4-3.2-28.8-9.6z" />
<glyph unicode="&#xe904;" glyph-name="abb_arrow-right" d="M582.4 448c0-28.8-12.8-60.8-35.2-83.2l-412.8-412.8c-28.8-28.8-76.8-25.6-108.8 3.2-25.6 28.8-25.6 73.6 0 102.4l377.6 377.6c3.2 3.2 3.2 12.8 0 16l-374.4 380.8c-32 32-25.6 83.2 3.2 108.8s73.6 25.6 102.4 0l412.8-412.8c22.4-19.2 35.2-51.2 35.2-80zM1024 448c0-28.8-12.8-60.8-35.2-83.2l-409.6-412.8c-28.8-28.8-76.8-25.6-108.8 3.2-25.6 28.8-25.6 73.6 0 102.4l377.6 377.6c3.2 3.2 3.2 12.8 0 16v0l-384 380.8c-28.8 28.8-25.6 76.8 3.2 108.8 28.8 25.6 73.6 25.6 102.4 0l416-412.8c25.6-19.2 38.4-51.2 38.4-80z" />
<glyph unicode="&#xe905;" glyph-name="abb_arrow-right1" d="M307.2-54.4l534.4 470.4c16 16 16 48 0 64v0l-534.4 470.4c-9.6 6.4-22.4 9.6-28.8 9.6-12.8 0-22.4-9.6-32-16l-67.2-76.8c-9.6-9.6-9.6-22.4-9.6-35.2s3.2-22.4 12.8-28.8l400-348.8c3.2-3.2 3.2-12.8 0-16l-400-348.8c-9.6-3.2-12.8-16-12.8-28.8s3.2-22.4 9.6-28.8l67.2-80c9.6-6.4 19.2-16 32-16 6.4 0 19.2 3.2 28.8 9.6z" />
<glyph unicode="&#xe906;" glyph-name="abb_cards" d="M426.667 746.667c0-117.821-95.513-213.333-213.333-213.333s-213.333 95.513-213.333 213.333c0 117.821 95.513 213.333 213.333 213.333s213.333-95.513 213.333-213.333zM1024 746.667c0-117.821-95.513-213.333-213.333-213.333s-213.333 95.513-213.333 213.333c0 117.821 95.513 213.333 213.333 213.333s213.333-95.513 213.333-213.333zM426.667 149.333c0-117.821-95.513-213.333-213.333-213.333s-213.333 95.513-213.333 213.333c0 117.821 95.513 213.333 213.333 213.333s213.333-95.513 213.333-213.333zM1024 149.333c0-117.821-95.513-213.333-213.333-213.333s-213.333 95.513-213.333 213.333c0 117.821 95.513 213.333 213.333 213.333s213.333-95.513 213.333-213.333z" />
<glyph unicode="&#xe907;" glyph-name="abb_close" d="M611.2 441.6c-3.2 3.2-3.2 9.6 0 16 0 0 0 0 0 0l393.6 393.6c25.6 25.6 25.6 64 0 89.6 0 0 0 0 0 0-25.6 25.6-64 25.6-89.6 0l-396.8-393.6c-3.2-3.2-9.6-3.2-16 0 0 0 0 0 0 0l-393.6 393.6c-25.6 25.6-64 25.6-89.6 0s-25.6-64 0-89.6c0 0 0 0 0 0l393.6-396.8c3.2-3.2 3.2-9.6 0-16 0 0 0 0 0 0l-393.6-393.6c-25.6-25.6-25.6-64 0-89.6 0 0 0 0 0 0 25.6-25.6 64-25.6 89.6 0l393.6 393.6c3.2 3.2 9.6 3.2 16 0 0 0 0 0 0 0l393.6-393.6c25.6-25.6 64-25.6 89.6 0s25.6 64 0 89.6c0 0 0 0 0 0l-390.4 396.8z" />
<glyph unicode="&#xe908;" glyph-name="abb_database-add" d="M384 89.6c-169.6 16-272 76.8-272 121.6v32c0 3.2 3.2 6.4 6.4 9.6s6.4 3.2 9.6 0c67.2-35.2 137.6-54.4 211.2-64 22.4-3.2 44.8 16 48 38.4 0 0 0 0 0 3.2v0c0 22.4-16 38.4-35.2 41.6-147.2 22.4-236.8 76.8-236.8 118.4v32c0 3.2 3.2 6.4 6.4 9.6s6.4 3.2 9.6 0c83.2-41.6 176-64 268.8-67.2 16 0 32 9.6 38.4 22.4 12.8 19.2 6.4 41.6-12.8 54.4-9.6 3.2-16 6.4-22.4 6.4-188.8 12.8-291.2 80-291.2 124.8v32c0 3.2 3.2 6.4 6.4 9.6s6.4 3.2 9.6 0c105.6-51.2 224-76.8 342.4-73.6 118.4-3.2 233.6 22.4 342.4 73.6 3.2 3.2 6.4 3.2 9.6 0s6.4-6.4 6.4-9.6c0-12.8 0-22.4 0-35.2-3.2-22.4 9.6-41.6 32-48 19.2-9.6 41.6 0 51.2 19.2 3.2 6.4 3.2 9.6 3.2 16v188.8c0 137.6-227.2 214.4-444.8 214.4s-444.8-73.6-444.8-211.2v-537.6c0-115.2 169.6-185.6 352-204.8 22.4-3.2 44.8 16 44.8 38.4 0 9.6 0 16-6.4 22.4-6.4 12.8-19.2 19.2-32 22.4zM470.4 873.6c217.6 0 358.4-73.6 358.4-128v0c0-51.2-140.8-128-358.4-128s-358.4 80-358.4 128 137.6 128 358.4 128zM726.4 486.4c-150.4 0-275.2-121.6-275.2-275.2s121.6-275.2 275.2-275.2 275.2 121.6 275.2 275.2v0c-3.2 150.4-124.8 275.2-275.2 275.2zM694.4 169.6c0 6.4-3.2 9.6-9.6 9.6h-64c-19.2 0-32 12.8-32 32s12.8 32 32 32h64c6.4 0 9.6 3.2 9.6 9.6v64c0 19.2 12.8 32 32 32s32-12.8 32-32v0-64c0-6.4 3.2-9.6 9.6-9.6h64c19.2 0 32-12.8 32-32s-12.8-32-32-32h-64c-6.4 0-9.6-3.2-9.6-9.6v-64c0-19.2-12.8-32-32-32s-32 12.8-32 32v64z" />
<glyph unicode="&#xe909;" glyph-name="abb_datamodel" d="M406.4 67.2c-22.4 38.4-38.4 80-48 128 0 3.2-3.2 3.2-9.6 9.6-92.8 9.6-179.2 41.6-256 92.8-3.2 0-9.6 0-12.8 0s-3.2-3.2-3.2-9.6v-73.6c0-80 134.4-147.2 313.6-166.4 3.2-3.2 12.8 0 16 3.2 6.4 3.2 6.4 9.6 0 16zM80 406.4c0-76.8 115.2-140.8 275.2-160 0 0 0 0 0 3.2 0 41.6 9.6 89.6 25.6 131.2 3.2 3.2 0 12.8-3.2 12.8 0 0 0 0-3.2 0-96 9.6-192 38.4-275.2 92.8-3.2 0-9.6 0-12.8 0s-6.4-6.4-6.4-9.6v-70.4zM771.2 601.6c35.2-3.2 67.2-16 96-28.8 3.2-3.2 12.8 0 12.8 3.2v3.2c3.2 28.8 3.2 60.8 0 89.6 0 3.2-3.2 9.6-3.2 9.6-3.2 0-9.6 0-12.8 0-28.8-25.6-64-41.6-96-54.4-3.2 0-9.6-3.2-9.6-12.8 0-6.4 9.6-9.6 12.8-9.6zM80 595.2c0-80 134.4-147.2 316.8-166.4 3.2 0 9.6 0 9.6 3.2 28.8 51.2 73.6 92.8 121.6 121.6 3.2 3.2 3.2 9.6 3.2 12.8s0 9.6-3.2 9.6c-176-9.6-345.6 28.8-428.8 99.2-3.2 0-9.6 0-12.8 0 0-3.2-3.2-9.6-3.2-12.8v-67.2zM886.4 784c0-93.667-180.519-169.6-403.2-169.6s-403.2 75.933-403.2 169.6c0 93.667 180.519 169.6 403.2 169.6s403.2-75.933 403.2-169.6zM780.8 243.2c0-35.346-28.654-64-64-64s-64 28.654-64 64c0 35.346 28.654 64 64 64s64-28.654 64-64zM972.8 393.6c-16 28.8-51.2 41.6-80 35.2l-64-12.8c-9.6-3.2-22.4 3.2-22.4 12.8l-22.4 60.8c-12.8 38.4-54.4 64-92.8 51.2-25.6-9.6-41.6-25.6-51.2-51.2l-16-60.8c-3.2-9.6-12.8-16-22.4-12.8l-57.6 9.6c-41.6 9.6-80-16-89.6-54.4-3.2-25.6 0-51.2 16-67.2l41.6-48c9.6-9.6 9.6-22.4 0-25.6l-41.6-48c-28.8-28.8-28.8-76.8 0-105.6 16-16 48-25.6 73.6-22.4l60.8 12.8c9.6 3.2 22.4-3.2 22.4-12.8l16-60.8c12.8-38.4 54.4-64 92.8-51.2 25.6 9.6 41.6 25.6 51.2 51.2l16 60.8c3.2 9.6 12.8 16 22.4 12.8l60.8-12.8c41.6-9.6 80 12.8 92.8 54.4 9.6 25.6 0 51.2-22.4 73.6l-41.6 48c-9.6 9.6-9.6 22.4 0 25.6l41.6 48c22.4 25.6 32 64 16 89.6zM588.8 243.2c0 73.6 54.4 128 128 128s128-54.4 128-128-54.4-128-128-128c-70.4 0-128 60.8-128 128v0 0z" />
<glyph unicode="&#xe90a;" glyph-name="abb_data-setting" d="M118.4 201.6v32c0 3.2 3.2 6.4 6.4 9.6s6.4 3.2 9.6 0c57.6-28.8 118.4-51.2 182.4-60.8 22.4-3.2 44.8 12.8 48 38.4 0 3.2 0 3.2 0 6.4 0 19.2-12.8 35.2-32 38.4-134.4 22.4-214.4 76.8-214.4 115.2v32c0 3.2 3.2 6.4 6.4 9.6s6.4 3.2 9.6 0c67.2-35.2 144-57.6 220.8-67.2 19.2 0 35.2 9.6 41.6 25.6 9.6 22.4 0 48-22.4 54.4-3.2 0-6.4 3.2-6.4 3.2-150.4 22.4-246.4 80-246.4 121.6v32c0 3.2 3.2 6.4 6.4 9.6-3.2 6.4 3.2 6.4 6.4 6.4 105.6-60.8 262.4-80 384-73.6 3.2 0 3.2 0 6.4 0 54.4 41.6 121.6 60.8 192 60.8 57.6 3.2 115.2-16 156.8-54.4 22.4-6.4 48 3.2 54.4 25.6 3.2 6.4 3.2 9.6 3.2 16v163.2c-3.2 140.8-233.6 214.4-451.2 214.4s-448-76.8-448-214.4v0-544c0-115.2 160-185.6 339.2-208 22.4-3.2 41.6 9.6 48 32 3.2 9.6 0 19.2-3.2 25.6-6.4 12.8-19.2 22.4-35.2 25.6-166.4 22.4-262.4 80-262.4 124.8zM480 873.6c220.8 0 361.6-76.8 361.6-128v0c0-51.2-140.8-128-361.6-128s-361.6 76.8-361.6 128 140.8 128 361.6 128zM787.2 236.8c0-35.346-28.654-64-64-64s-64 28.654-64 64c0 35.346 28.654 64 64 64s64-28.654 64-64zM969.6 294.4c22.4 25.6 28.8 60.8 9.6 89.6-16 28.8-51.2 44.8-83.2 35.2l-60.8-12.8c-9.6-3.2-19.2 3.2-22.4 12.8l-19.2 60.8c-12.8 41.6-54.4 64-92.8 51.2-25.6-6.4-44.8-25.6-51.2-51.2l-19.2-60.8c-3.2-9.6-12.8-16-22.4-12.8l-60.8 12.8c-41.6 9.6-80-16-89.6-57.6-6.4-25.6 0-51.2 19.2-70.4l41.6-44.8c6.4-6.4 6.4-19.2 0-25.6l-41.6-44.8c-28.8-32-25.6-80 3.2-108.8 19.2-16 44.8-25.6 70.4-19.2l60.8 12.8c9.6 3.2 19.2-3.2 22.4-12.8l19.2-60.8c12.8-41.6 54.4-60.8 96-51.2 22.4 6.4 41.6 25.6 51.2 51.2l19.2 60.8c3.2 9.6 12.8 16 22.4 12.8l60.8-12.8c32-9.6 67.2 6.4 83.2 35.2s12.8 64-9.6 89.6l-48 48c-6.4 6.4-6.4 19.2 0 25.6l41.6 48zM851.2 236.8c0-70.4-57.6-128-128-128s-128 57.6-128 128 57.6 128 128 128 128-57.6 128-128z" />
<glyph unicode="&#xe90b;" glyph-name="abb_delete" d="M828.8 640h-633.6c-12.8 0-22.4-9.6-22.4-22.4 0 0 0 0 0-3.2l54.4-604.8c3.2-41.6 41.6-73.6 86.4-73.6h400c44.8 0 80 32 86.4 76.8l57.6 604.8c0 12.8-6.4 22.4-19.2 22.4-6.4 3.2-6.4 3.2-9.6 0v0zM438.4 86.4c0-19.2-12.8-32-32-32s-32 12.8-32 32v384c0 19.2 12.8 32 32 32s32-12.8 32-32v-384zM649.6 86.4c0-19.2-12.8-32-32-32s-32 12.8-32 32v384c0 19.2 12.8 32 32 32s32-12.8 32-32v-384zM937.6 790.4h-201.6c-6.4 0-9.6 3.2-9.6 9.6v54.4c0 57.6-48 105.6-105.6 105.6h-214.4c-57.6 0-105.6-48-105.6-105.6v-54.4c0-6.4-3.2-9.6-9.6-9.6h-204.8c-22.4 0-41.6-19.2-41.6-41.6s16-44.8 41.6-44.8h854.4c22.4 0 41.6 19.2 41.6 41.6s-19.2 44.8-44.8 44.8zM384 800v54.4c0 12.8 9.6 22.4 22.4 22.4h214.4c9.6-3.2 19.2-12.8 19.2-22.4v-54.4c0-6.4-3.2-9.6-9.6-9.6h-233.6c-9.6 0-12.8 3.2-12.8 9.6z" />
<glyph unicode="&#xe90c;" glyph-name="abb_edit" d="M633.6 806.4c-9.6 9.6-22.4 9.6-28.8 0l-374.4-384c-6.4-6.4-6.4-19.2 0-28.8v0l182.4-182.4c9.6-9.6 22.4-9.6 28.8 0v0l374.4 384c9.6 9.6 9.6 22.4 0 28.8l-182.4 182.4zM204.8 368c-3.2 3.2-12.8 9.6-22.4 3.2-9.6 0-12.8-9.6-16-12.8l-89.6-268.8c0-9.6 0-16 3.2-22.4 3.2-9.6 12.8-9.6 22.4-9.6l268.8 89.6c9.6 3.2 12.8 9.6 12.8 16 3.2 9.6 0 16-3.2 22.4l-176 182.4zM921.6 912c-57.6 54.4-150.4 54.4-211.2 0l-28.8-28.8c-9.6-9.6-9.6-22.4 0-28.8v0l179.2-182.4c9.6-9.6 22.4-9.6 28.8 0l28.8 28.8c60.8 57.6 60.8 150.4 3.2 211.2v0zM102.4 28.8h758.4v-83.2h-758.4v83.2z" />
<glyph unicode="&#xe90d;" glyph-name="abb_filter" d="M128 960c-64 0-108.8-44.8-108.8-108.8 0-12.8 0-28.8 9.6-41.6 3.2-12.8 12.8-25.6 25.6-38.4l326.4-326.4v-473.6c0-9.6 3.2-16 12.8-22.4 3.2 3.2 16 3.2 22.4 9.6l246.4 243.2c3.2 3.2 9.6 9.6 9.6 16v230.4l323.2 326.4c12.8 12.8 22.4 22.4 25.6 38.4 3.2 12.8 3.2 25.6 3.2 38.4 0 64-44.8 108.8-108.8 108.8h-787.2z" />
<glyph unicode="&#xe90e;" glyph-name="abb_home" d="M540.8 947.2c-16 16-41.6 16-60.8 0v0l-467.2-470.4c-12.8-12.8-16-28.8-9.6-44.8 3.2-16 22.4-25.6 38.4-25.6h51.2c3.2 0 9.6-3.2 9.6-9.6v-419.2c0-25.6 16-41.6 41.6-41.6h240c25.6 0 41.6 16 41.6 41.6v214.4c0 48 38.4 86.4 86.4 86.4s86.4-38.4 86.4-86.4v-214.4c0-25.6 16-41.6 41.6-41.6h233.6c25.6 0 41.6 16 41.6 41.6v419.2c0 3.2 3.2 9.6 9.6 9.6h54.4c16 0 35.2 9.6 38.4 25.6 9.6 16 3.2 35.2-9.6 48l-467.2 467.2zM860.8 502.4c3.2-3.2 3.2-3.2 3.2-9.6 0-3.2-3.2-3.2-9.6-9.6-12.8 0-22.4-19.2-22.4-35.2v-419.2c0-3.2-3.2-9.6-9.6-9.6h-128c-3.2 0-9.6 3.2-9.6 9.6v163.2c0 92.8-76.8 169.6-169.6 169.6s-169.6-76.8-169.6-169.6v-163.2c-3.2-3.2-9.6-9.6-12.8-9.6h-128c-3.2 0-9.6 3.2-9.6 9.6v419.2c0 16-12.8 35.2-28.8 38.4-3.2 0-3.2 3.2-9.6 9.6 0 3.2 0 9.6 3.2 9.6l348.8 342.4c3.2 3.2 12.8 3.2 16 0v0l336-345.6z" />
<glyph unicode="&#xe90f;" glyph-name="abb_info" d="M512 960c-281.6 0-512-230.4-512-512s230.4-512 512-512 512 230.4 512 512-230.4 512-512 512zM521.6 745.6c35.2 0 64-28.8 64-64s-28.8-64-64-64c-35.2 0-64 28.8-64 64s28.8 64 64 64zM617.6 169.6h-169.6c-22.4 0-41.6 19.2-41.6 41.6s19.2 41.6 41.6 41.6h32c6.4 0 9.6 3.2 9.6 9.6v192c0 6.4-3.2 9.6-9.6 9.6h-32c-22.4 0-41.6 19.2-41.6 41.6s19.2 41.6 41.6 41.6h41.6c48 0 86.4-38.4 86.4-86.4v-201.6c0-6.4 3.2-9.6 9.6-9.6h32c22.4 0 41.6-19.2 41.6-41.6 3.2-19.2-16-38.4-41.6-38.4z" />
<glyph unicode="&#xe910;" glyph-name="abb_list" d="M361.6 745.6h617.6c22.4 0 41.6 19.2 41.6 41.6s-16 44.8-38.4 44.8h-620.8c-22.4 0-41.6-19.2-41.6-41.6s19.2-44.8 41.6-44.8zM982.4 489.6h-620.8c-22.4 0-41.6-19.2-41.6-41.6s19.2-41.6 41.6-41.6h617.6c22.4 0 41.6 19.2 41.6 41.6 3.2 22.4-16 41.6-38.4 41.6zM982.4 150.4h-620.8c-22.4 0-41.6-19.2-41.6-41.6s19.2-41.6 41.6-41.6h617.6c22.4 0 41.6 19.2 41.6 41.6 3.2 22.4-16 41.6-38.4 41.6zM150.4 896h-86.4c-35.2 0-64-28.8-64-64v-86.4c0-35.2 28.8-64 64-64h86.4c35.2 0 64 28.8 64 64v86.4c0 35.2-28.8 64-64 64zM169.6 745.6c0-9.6-9.6-19.2-19.2-19.2h-86.4c-12.8 0-22.4 9.6-22.4 19.2v86.4c0 12.8 9.6 22.4 22.4 22.4h86.4c9.6 0 19.2-9.6 19.2-22.4v-86.4zM150.4 553.6h-86.4c-35.2 0-64-28.8-64-64v-86.4c0-35.2 28.8-64 64-64h86.4c35.2 0 64 28.8 64 64v86.4c0 35.2-28.8 64-64 64zM169.6 406.4c0-12.8-9.6-22.4-19.2-22.4h-86.4c-12.8 0-22.4 9.6-22.4 22.4v86.4c0 9.6 9.6 19.2 22.4 19.2h86.4c12.8 0 22.4-9.6 22.4-22.4l-3.2-83.2zM150.4 214.4h-86.4c-35.2 0-64-28.8-64-64v-86.4c0-35.2 28.8-64 64-64h86.4c35.2 0 64 28.8 64 64v86.4c0 35.2-28.8 64-64 64zM169.6 64c0-12.8-9.6-22.4-22.4-22.4h-83.2c-12.8 0-22.4 9.6-22.4 22.4v86.4c0 12.8 9.6 22.4 22.4 22.4h86.4c12.8 0 22.4-9.6 22.4-22.4l-3.2-86.4z" />
<glyph unicode="&#xe911;" glyph-name="abb_matrix" d="M140.8 963.2v0c80 0 144-64 144-140.8v0c0-80-64-140.8-140.8-140.8v0c-80 0-140.8 64-140.8 140.8v0c-9.6 73.6 57.6 140.8 137.6 140.8zM140.8 585.6v0c80 0 144-64 144-140.8v0c0-80-64-140.8-140.8-140.8v0c-80 0-140.8 64-140.8 140.8v0c-9.6 80 57.6 140.8 137.6 140.8zM140.8 220.8v0c80 0 144-64 144-140.8v0c0-80-64-140.8-140.8-140.8v0c-80 0-140.8 64-140.8 140.8v0c-9.6 73.6 57.6 140.8 137.6 140.8zM512 963.2v0c80 0 144-64 144-140.8v0c0-80-64-140.8-140.8-140.8v0c-80 0-140.8 64-140.8 140.8v0c-3.2 73.6 57.6 140.8 137.6 140.8zM512 585.6v0c80 0 144-64 144-140.8v0c0-80-64-140.8-140.8-140.8v0c-80 0-140.8 64-140.8 140.8v0c-3.2 80 57.6 140.8 137.6 140.8zM512 220.8v0c80 0 144-64 144-140.8v0c0-80-64-140.8-140.8-140.8v0c-80 0-140.8 64-140.8 140.8v0c-3.2 73.6 57.6 140.8 137.6 140.8zM883.2 963.2v0c80 0 144-64 144-140.8v0c0-80-64-140.8-140.8-140.8v0c-80 0-140.8 64-140.8 140.8v0c-6.4 73.6 57.6 140.8 137.6 140.8zM883.2 585.6v0c80 0 144-64 144-140.8v0c0-80-64-140.8-140.8-140.8v0c-80 0-140.8 64-140.8 140.8v0c-6.4 80 57.6 140.8 137.6 140.8zM883.2 220.8v0c80 0 144-64 144-140.8v0c0-80-64-140.8-140.8-140.8v0c-80 0-140.8 64-140.8 140.8v0c-6.4 73.6 57.6 140.8 137.6 140.8z" />
<glyph unicode="&#xe912;" glyph-name="abb_menu" d="M275.2 448c0-75.994-61.606-137.6-137.6-137.6s-137.6 61.606-137.6 137.6c0 75.994 61.606 137.6 137.6 137.6s137.6-61.606 137.6-137.6zM649.6 448c0-75.994-61.606-137.6-137.6-137.6s-137.6 61.606-137.6 137.6c0 75.994 61.606 137.6 137.6 137.6s137.6-61.606 137.6-137.6zM1024 448c0-75.994-61.606-137.6-137.6-137.6s-137.6 61.606-137.6 137.6c0 75.994 61.606 137.6 137.6 137.6s137.6-61.606 137.6-137.6z" />
<glyph unicode="&#xe913;" glyph-name="abb_menu_1" d="M86.4 960h854.4c44.8 0 83.2-38.4 83.2-86.4v-57.6c0-44.8-38.4-86.4-86.4-86.4h-851.2c-48 3.2-86.4 41.6-86.4 89.6v54.4c0 48 38.4 86.4 86.4 86.4zM86.4 563.2h854.4c44.8 0 86.4-38.4 86.4-86.4v-57.6c0-44.8-38.4-86.4-86.4-86.4h-854.4c-44.8 0-86.4 38.4-86.4 86.4v57.6c0 44.8 38.4 86.4 86.4 86.4zM86.4 163.2h854.4c44.8 0 86.4-38.4 86.4-86.4v-57.6c0-44.8-38.4-86.4-86.4-86.4h-854.4c-48 3.2-86.4 41.6-86.4 89.6v57.6c0 44.8 38.4 83.2 86.4 83.2z" />
<glyph unicode="&#xe914;" glyph-name="abb_optimisation" d="M985.6 531.2l-70.4 9.6c-3.2 0-9.6 3.2-9.6 9.6-9.6 35.2-25.6 67.2-41.6 96-3.2 3.2-3.2 9.6 0 12.8l48 60.8c12.8 16 12.8 41.6-3.2 54.4l-60.8 67.2c-16 16-38.4 16-54.4 3.2l-70.4-44.8c-3.2-3.2-9.6-3.2-12.8 0-28.8 16-64 35.2-96 41.6-3.2 0-9.6 3.2-9.6 9.6l-9.6 70.4c-3.2 22.4-19.2 38.4-41.6 38.4h-89.6c-22.4 0-38.4-16-41.6-38.4l-6.4-70.4c0-3.2-3.2-9.6-9.6-9.6-35.2-12.8-67.2-25.6-96-41.6-6.4-6.4-9.6-6.4-12.8 0l-60.8 44.8c-16 12.8-41.6 12.8-54.4-3.2l-64-64c-16-12.8-22.4-38.4-3.2-54.4l41.6-64c3.2-3.2 3.2-9.6 0-12.8-16-28.8-28.8-60.8-41.6-96 0-3.2-3.2-9.6-9.6-9.6l-70.4-9.6c-22.4-3.2-38.4-22.4-38.4-41.6v-89.6c0-22.4 16-38.4 38.4-41.6l70.4-6.4c3.2 0 9.6-3.2 9.6-9.6 9.6-35.2 25.6-67.2 41.6-96 3.2-3.2 3.2-9.6 0-12.8l-51.2-54.4c-12.8-16-12.8-41.6 3.2-54.4l64-64c16-16 38.4-16 54.4-3.2v0l60.8 44.8c3.2 3.2 9.6 3.2 12.8 0 28.8-16 64-35.2 96-41.6 3.2 0 9.6-3.2 9.6-9.6l9.6-70.4c3.2-22.4 22.4-38.4 41.6-38.4h89.6c22.4 0 38.4 16 41.6 38.4l9.6 70.4c0 3.2 3.2 9.6 9.6 9.6 35.2 9.6 67.2 25.6 96 41.6 3.2 3.2 9.6 3.2 12.8 0l60.8-48c16-12.8 41.6-12.8 54.4 3.2l64 64c16 16 16 38.4 3.2 54.4l-35.2 60.8c-3.2 3.2-3.2 9.6 0 12.8 16 28.8 35.2 64 41.6 96 0 3.2 3.2 9.6 9.6 9.6l70.4 9.6c22.4 3.2 38.4 22.4 38.4 41.6v89.6c0 19.2-16 35.2-38.4 35.2zM512 147.2c-166.4 0-300.8 134.4-300.8 300.8s134.4 300.8 300.8 300.8 297.6-134.4 297.6-300.8-131.2-300.8-297.6-300.8zM678.4 544l-89.6-76.8c-3.2-3.2-9.6-3.2-12.8 0l-60.8 44.8c-12.8 9.6-28.8 12.8-48 12.8-16 0-35.2-9.6-48-16l-108.8-96c-16-16-22.4-41.6-3.2-60.8 9.6-9.6 22.4-12.8 35.2-12.8 9.6 0 22.4 3.2 28.8 12.8l96 83.2c3.2 3.2 9.6 3.2 12.8 0l60.8-41.6c12.8-9.6 28.8-16 48-12.8 16 0 35.2 9.6 48 16l102.4 89.6c16 12.8 22.4 41.6 9.6 60.8-25.6 9.6-51.2 16-70.4-3.2v0 0z" />
<glyph unicode="&#xe915;" glyph-name="abb_search" d="M998.4 80l-195.2 195.2c131.2 201.6 80 473.6-118.4 604.8s-473.6 83.2-611.2-118.4-80-473.6 118.4-604.8c73.6-48 156.8-73.6 243.2-73.6s169.6 25.6 243.2 73.6l195.2-195.2c35.2-35.2 86.4-35.2 118.4 0 41.6 28.8 41.6 86.4 6.4 118.4v0zM438.4 832c169.6 0 307.2-137.6 307.2-310.4s-137.6-307.2-310.4-307.2c-169.6 0-307.2 137.6-307.2 307.2 3.2 169.6 137.6 310.4 310.4 310.4z" />
<glyph unicode="&#xe916;" glyph-name="abb_settings" d="M1011.2 682.667l-34.133 34.133c-4.267 4.267-4.267 8.533 0 12.8l34.133 34.133c21.333 21.333 21.333 51.2 8.533 76.8s-42.667 38.4-68.267 34.133l-46.933-12.8c-4.267 0-8.533 4.267-12.8 8.533l-17.067 46.933c-8.533 25.6-34.133 42.667-59.733 42.667v0c-29.867 0-51.2-17.067-59.733-46.933l-12.8-46.933c0-4.267-8.533-8.533-12.8-8.533 0 0 0 0 0 0l-46.933 17.067c-25.6 8.533-55.467-4.267-68.267-29.867-17.067-25.6-12.8-55.467 4.267-76.8l34.133-34.133c4.267-4.267 4.267-8.533 0-12.8l-34.133-34.133c-17.067-25.6-21.333-55.467-4.267-76.8 12.8-25.6 42.667-38.4 68.267-29.867l42.667 8.533c4.267 0 8.533 0 12.8-8.533l17.067-46.933c8.533-25.6 34.133-42.667 59.733-42.667v0c25.6 0 51.2 17.067 59.733 42.667l12.8 46.933c0 4.267 8.533 8.533 12.8 8.533l46.933-12.8c34.133-8.533 68.267 8.533 76.8 42.667 8.533 21.333 4.267 46.933-12.8 64zM814.933 640c-46.933 0-81.067 38.4-81.067 85.333s38.4 81.067 85.333 81.067c46.933 0 81.067-34.133 81.067-81.067s-38.4-85.333-85.333-85.333c0 0 0 0 0 0v0zM627.2 298.667l29.867 25.6c29.867 29.867 34.133 76.8 4.267 110.933-17.067 17.067-38.4 25.6-59.733 25.6h-38.4c-21.333 0-34.133 12.8-38.4 34.133 0 0 0 0 0 4.267v38.4c0 42.667-34.133 76.8-76.8 76.8-21.333 0-38.4-8.533-55.467-21.333l-25.6-29.867c-12.8-12.8-34.133-12.8-51.2 0 0 0 0 0 0 0l-25.6 29.867c-29.867 29.867-76.8 34.133-110.933 4.267-17.067-12.8-25.6-38.4-25.6-59.733l4.267-38.4c0-8.533-4.267-21.333-8.533-25.6-8.533-8.533-17.067-8.533-25.6-8.533h-42.667c-42.667 0-76.8-34.133-76.8-76.8 0-21.333 8.533-42.667 21.333-55.467l29.867-25.6c8.533-8.533 12.8-17.067 12.8-25.6s-4.267-17.067-12.8-25.6l-29.867-25.6c-25.6-21.333-29.867-55.467-21.333-85.333 12.8-29.867 42.667-51.2 76.8-46.933l38.4 4.267c21.333 0 34.133-12.8 38.4-34.133 0 0 0 0 0-4.267l-4.267-38.4c0-34.133 17.067-64 46.933-76.8 12.8-12.8 21.333-17.067 29.867-17.067 21.333 0 42.667 8.533 55.467 25.6l25.6 29.867c12.8 12.8 34.133 12.8 51.2 0 0 0 0 0 0 0l25.6-29.867c29.867-29.867 76.8-34.133 110.933-4.267 17.067 17.067 25.6 38.4 25.6 59.733v38.4c0 8.533 4.267 21.333 8.533 25.6 8.533 8.533 17.067 12.8 25.6 8.533l38.4-4.267c34.133 0 64 17.067 76.8 46.933s4.267 64-21.333 85.333l-29.867 25.6c-8.533 8.533-12.8 17.067-12.8 25.6 8.533 21.333 12.8 29.867 17.067 34.133zM512 273.067c0-93.867-76.8-170.667-170.667-170.667s-170.667 76.8-170.667 170.667 76.8 170.667 170.667 170.667 170.667-72.533 170.667-170.667z" />
<glyph unicode="&#xe917;" glyph-name="abb_active" d="M496 755.2c0 19.2-12.8 32-28.8 35.2 0 0 0 0-3.2 0v0c-16 0-32-12.8-32-32 0 0 0 0 0 0v-227.2h-115.2c-19.2 0-32-12.8-32-32s12.8-32 32-32h147.2c16 0 32 16 32 32v256zM400 102.4c-217.6 35.2-364.8 240-329.6 457.6s236.8 364.8 454.4 329.6c172.8-25.6 307.2-163.2 332.8-336 0-19.2 16-32 35.2-28.8 19.2 0 32 16 28.8 35.2 0 0 0 3.2 0 3.2-38.4 252.8-272 428.8-524.8 393.6s-428.8-272-393.6-524.8c28.8-201.6 185.6-358.4 384-390.4h3.2c19.2 0 32 16 32 32 3.2 12.8-6.4 28.8-22.4 28.8v0zM729.6 499.2c-153.6 0-278.4-124.8-278.4-278.4s124.8-278.4 278.4-278.4 278.4 124.8 278.4 278.4c-3.2 153.6-128 278.4-278.4 278.4zM867.2 278.4l-124.8-166.4c-12.8-16-32-25.6-51.2-25.6-16 0-32 6.4-44.8 19.2l-64 64c-12.8 12.8-12.8 32 0 44.8s32 12.8 44.8 0l54.4-57.6c3.2-3.2 9.6-3.2 16 0 0 0 0 0 0 0l115.2 156.8c9.6 12.8 32 16 44.8 6.4s22.4-28.8 9.6-41.6v0z" />
<glyph unicode="&#xe918;" glyph-name="abb_alarm-bell" d="M607.573 64h-191.147c-5.293-0.179-9.597-4.189-10.235-9.335l-0.005-0.052c-0.101-1.784-0.158-3.872-0.158-5.973s0.058-4.189 0.171-6.262l-0.013 0.289c0-58.91 47.756-106.667 106.667-106.667s106.667 47.756 106.667 106.667v0c0.101 1.784 0.158 3.872 0.158 5.973s-0.058 4.189-0.171 6.262l0.013-0.289c-0.621 5.354-5.129 9.472-10.6 9.472-0.475 0-0.943-0.031-1.401-0.091l0.054 0.006zM915.2 137.387c-47.037 91.153-74.629 198.937-74.667 313.161v32.439c0.047 2.243 0.073 4.887 0.073 7.537 0 130.949-64.755 246.773-163.989 317.198l-1.204 0.811c-28.418 18.552-61.861 32.129-97.778 38.583l-1.635 0.244v48.64c0 35.346-28.654 64-64 64s-64-28.654-64-64v0-49.067c-46.565-8.963-87.599-28.116-122.239-55.092l0.639 0.479c-87.593-72.372-142.991-181.017-142.991-302.601 0-2.367 0.021-4.73 0.063-7.087l-0.005 0.354v-32.427c-0.038-114.237-27.63-222.021-76.49-317.078l1.824 3.905c-1.612-2.964-2.56-6.491-2.56-10.24s0.948-7.276 2.617-10.355l-0.057 0.115c4.004-6.2 10.879-10.246 18.699-10.246 0.176 0 0.352 0.002 0.527 0.006h767.974c7.684 0.125 14.405 4.138 18.294 10.153l0.053 0.087c1.89 3.159 3.008 6.968 3.008 11.039 0 3.433-0.795 6.681-2.212 9.569l0.057-0.128z" />
<glyph unicode="&#xe919;" glyph-name="abb_building" d="M150.4 809.6h726.4c9.6 0 16 3.2 22.4 12.8 3.2 6.4 3.2 16-3.2 22.4l-73.6 89.6c-16 16-35.2 25.6-54.4 25.6h-512c-19.2 0-38.4-9.6-51.2-22.4l-73.6-92.8c-3.2-6.4-3.2-16 0-22.4s9.6-12.8 19.2-12.8zM873.6 745.6h-723.2c-12.8 0-22.4-9.6-22.4-19.2v-726.4c0-35.2 28.8-64 64-64h214.4c12.8 0 22.4 9.6 22.4 22.4v86.4c0 48 38.4 86.4 86.4 86.4s86.4-38.4 86.4-86.4v-86.4c0-12.8 9.6-22.4 22.4-22.4h208c35.2 0 64 28.8 64 64v726.4c0 9.6-9.6 19.2-22.4 19.2zM342.4 256c0-12.8-9.6-22.4-22.4-22.4h-86.4c-12.8 0-22.4 9.6-22.4 22.4v86.4c0 35.2 28.8 64 64 64s64-28.8 64-64v-86.4zM342.4 512c0-12.8-9.6-22.4-22.4-22.4h-86.4c-12.8 0-22.4 9.6-22.4 22.4v86.4c0 35.2 28.8 64 64 64s64-28.8 64-64v-86.4zM576 256c0-12.8-9.6-22.4-22.4-22.4h-86.4c-12.8 0-22.4 9.6-22.4 22.4v86.4c0 35.2 28.8 64 64 64s64-28.8 64-64v-86.4zM576 512c0-12.8-9.6-22.4-22.4-22.4h-86.4c-12.8 0-22.4 9.6-22.4 22.4v86.4c0 35.2 28.8 64 64 64s64-28.8 64-64v-86.4zM809.6 256c0-12.8-9.6-22.4-22.4-22.4h-83.2c-12.8 0-22.4 9.6-22.4 22.4v86.4c0 35.2 28.8 64 64 64s64-28.8 64-64v-86.4zM809.6 512c0-12.8-9.6-22.4-22.4-22.4h-83.2c-12.8 0-22.4 9.6-22.4 22.4v86.4c0 35.2 28.8 64 64 64s64-28.8 64-64v-86.4z" />
<glyph unicode="&#xe91a;" glyph-name="abb_charger" d="M969.6 406.4c0 22.4-19.2 41.6-41.6 41.6h-32c-147.2 0-265.6-118.4-265.6-265.6v0-32c0-70.4-57.6-128-128-128s-128 57.6-128 128v73.6c0 6.4 6.4 9.6 9.6 9.6 0 0 0 0 0 0 32 3.2 54.4 32 54.4 64v73.6c0 3.2 3.2 9.6 6.4 9.6 99.2 35.2 163.2 131.2 163.2 236.8v128c0 35.2-28.8 64-64 64h-32c-6.4 0-9.6 3.2-9.6 9.6v96c0 22.4-19.2 41.6-41.6 41.6-25.6 3.2-44.8-16-44.8-38.4v-96c0-6.4-3.2-9.6-9.6-9.6h-150.4c-6.4 0-9.6 3.2-9.6 9.6v96c0 22.4-19.2 41.6-44.8 41.6s-41.6-19.2-41.6-41.6v-96c0-6.4-3.2-9.6-9.6-9.6h-32c-35.2 0-64-28.8-64-64v-128c0-105.6 64-201.6 163.2-236.8 3.2 0 6.4-6.4 6.4-9.6v-73.6c0-32 22.4-60.8 54.4-64 6.4-3.2 9.6-6.4 9.6-12.8v-73.6c0-118.4 96-214.4 214.4-214.4s214.4 96 214.4 214.4v32c0 99.2 80 182.4 182.4 182.4h32c19.2-3.2 38.4 16 38.4 41.6zM448 662.4c0-16-16-32-32-32h-169.6c-19.2 0-32 12.8-32 32s12.8 32 32 32h169.6c16 0 32-16 32-32z" />
<glyph unicode="&#xe91b;" glyph-name="abb_charging-flash" d="M903.68 785.92c-102.802 94.417-240.483 152.287-391.68 152.287s-288.878-57.87-392.102-152.67l0.422 0.382c-8.443-7.828-13.709-18.979-13.709-31.36 0-23.595 19.128-42.723 42.723-42.723 11.214 0 21.419 4.321 29.041 11.388l-0.027-0.025c87.509 80.579 204.812 129.98 333.653 129.98s246.144-49.401 334-130.295l-0.347 0.315c7.595-7.042 17.799-11.363 29.013-11.363 23.595 0 42.723 19.128 42.723 42.723 0 12.381-5.267 23.532-13.682 31.335l-0.027 0.025zM776.107 661.333c-68.674 65.167-161.71 105.246-264.107 105.246s-195.432-40.079-264.276-105.405l0.169 0.159c-5.141-6.963-8.228-15.715-8.228-25.188 0-23.564 19.103-42.667 42.667-42.667 9.15 0 17.628 2.88 24.575 7.784l-0.134-0.090c53.39 50.578 125.677 81.679 205.227 81.679s151.836-31.101 205.362-81.806l-0.136 0.127c7.733-7.795 18.45-12.621 30.293-12.621s22.56 4.826 30.291 12.618l0.003 0.003c7.171 7.616 11.578 17.904 11.578 29.222 0 12.169-5.094 23.148-13.267 30.921l-0.018 0.017zM644.267 341.76h-79.787c-5.891 0-10.667 4.776-10.667 10.667v0 223.573c0 0.045 0.001 0.097 0.001 0.15 0 9.26-6.020 17.113-14.359 19.861l-0.148 0.042c-2.122 0.814-4.577 1.286-7.143 1.286-6.642 0-12.546-3.162-16.288-8.063l-0.036-0.050-251.733-314.453c-5.516-6.494-8.87-14.973-8.87-24.236 0-5.596 1.224-10.906 3.42-15.677l-0.096 0.233c5.975-12.916 18.808-21.724 33.702-21.76h80.218c5.891 0 10.667-4.776 10.667-10.667v0-224c0.070-11.729 9.594-21.21 21.333-21.21 6.711 0 12.698 3.099 16.609 7.943l0.032 0.041 251.733 314.453c5.641 6.476 9.080 14.998 9.080 24.324 0 20.501-16.619 37.12-37.12 37.12-0.192 0-0.384-0.001-0.576-0.004h0.029z" />
<glyph unicode="&#xe91c;" glyph-name="abb_cross-circle" d="M512 960c-282.77 0-512-229.23-512-512s229.23-512 512-512c282.77 0 512 229.23 512 512v0c0 282.77-229.23 512-512 512v0zM512 42.667c-223.859 0-405.333 181.474-405.333 405.333s181.474 405.333 405.333 405.333c223.859 0 405.333-181.474 405.333-405.333v0c0-0.127 0-0.277 0-0.427 0-223.624-181.283-404.907-404.907-404.907-0.15 0-0.3 0-0.45 0h0.023zM725.333 661.333c-9.883 9.881-23.534 15.992-38.613 15.992s-28.731-6.111-38.613-15.992l-136.107-136.107-135.253 136.107c-9.923 10.138-23.748 16.423-39.040 16.423s-29.117-6.285-39.031-16.413l-0.009-0.010c-9.804-9.997-15.856-23.705-15.856-38.827s6.051-28.83 15.864-38.836l-0.009 0.009 136.533-135.68-136.533-135.253c-9.991-9.991-16.171-23.794-16.171-39.040 0-30.492 24.719-55.211 55.211-55.211 15.246 0 29.049 6.18 39.040 16.171v0l135.253 136.533 135.68-136.533c10.041-9.706 23.735-15.687 38.827-15.687s28.786 5.981 38.842 15.702l-0.016-0.015c9.881 9.883 15.992 23.534 15.992 38.613s-6.111 28.731-15.992 38.613l-136.107 136.107 136.107 135.68c10.009 9.904 16.206 23.641 16.206 38.827s-6.198 28.923-16.202 38.822l-0.005 0.005z" />
<glyph unicode="&#xe91d;" glyph-name="abb_cursor-choose-interface" d="M173.653 602.027c12.718 0.839 23.815 7.133 31.073 16.541l0.074 0.099 166.827 222.293c5.327 7.042 8.533 15.947 8.533 25.6 0 23.564-19.103 42.667-42.667 42.667-13.911 0-26.267-6.657-34.056-16.959l-0.078-0.107-137.387-183.040-93.013 93.44c-7.753 7.753-18.463 12.548-30.293 12.548-23.661 0-42.841-19.181-42.841-42.841 0-11.83 4.795-22.541 12.548-30.293v0l128-128c7.678-7.479 18.18-12.092 29.76-12.092 1.239 0 2.466 0.053 3.678 0.156l-0.158-0.011zM928.427 757.333l83.2 83.2c7.668 7.712 12.407 18.343 12.407 30.080s-4.74 22.368-12.409 30.082l0.002-0.002c-7.733 7.795-18.45 12.621-30.293 12.621s-22.56-4.826-30.291-12.618l-0.003-0.003-82.773-85.333-85.333 83.2c-5.825 3.178-12.76 5.047-20.13 5.047-23.564 0-42.667-19.103-42.667-42.667 0-7.481 1.926-14.513 5.308-20.626l-0.111 0.219 82.773-85.333-82.773-80.64c-6.502-7.448-10.466-17.257-10.466-27.992 0-23.564 19.103-42.667 42.667-42.667 10.522 0 20.155 3.809 27.594 10.123l-0.061-0.051 85.333 83.2 82.773-83.2c7.733-7.795 18.45-12.621 30.293-12.621s22.56 4.826 30.291 12.618l0.003 0.003c7.795 7.733 12.621 18.45 12.621 30.293s-4.826 22.56-12.618 30.291l-0.003 0.003zM720.213 281.6h-122.88v282.453c0.136 1.967 0.213 4.264 0.213 6.579 0 56.083-45.464 101.547-101.547 101.547s-101.547-45.464-101.547-101.547c0-2.315 0.077-4.611 0.23-6.887l-0.017 0.309v-397.227l-57.173 80.213c-16.11 27.808-45.727 46.215-79.643 46.215-14.484 0-28.183-3.357-40.363-9.334l0.54 0.239c-28.213-15.349-47.040-44.772-47.040-78.592 0-14.929 3.669-29.002 10.154-41.365l-0.234 0.49 89.6-170.667c3.602-6.848 10.642-11.453 18.764-11.52h606.729c11.687 0.234 21.099 9.647 21.333 21.311v70.849c-0.319 110.759-87.246 201.112-196.603 206.911l-0.517 0.022z" />
<glyph unicode="&#xe91e;" glyph-name="abb_desktop-computer" d="M320 170.667h74.24c11.782 0 21.333 9.551 21.333 21.333v0 746.667c0 11.782-9.551 21.333-21.333 21.333v0h-31.573c-35.346 0-64-28.654-64-64v0-704c0-11.782 9.551-21.333 21.333-21.333v0zM500.907 170.667h203.093c11.782 0 21.333 9.551 21.333 21.333v0 426.667c0 11.782-9.551 21.333-21.333 21.333v0h-203.093c-11.782 0-21.333-9.551-21.333-21.333v0-426.667c0-11.782 9.551-21.333 21.333-21.333v0zM596.907 384c23.564 0 42.667-19.103 42.667-42.667s-19.103-42.667-42.667-42.667c-23.564 0-42.667 19.103-42.667 42.667v0c0 0.001 0 0.001 0 0.002 0 23.564 19.103 42.667 42.667 42.667 0.15 0 0.3-0.001 0.449-0.002h-0.023zM725.333 704v192c0 35.346-28.654 64-64 64v0h-160c-11.782 0-21.333-9.551-21.333-21.333v0-234.667c0-11.782 9.551-21.333 21.333-21.333v0h202.667c11.782 0 21.333 9.551 21.333 21.333v0zM725.333 106.667h-426.667c-58.91 0-106.667-47.756-106.667-106.667v0c0-35.346 28.654-64 64-64v0h512c35.346 0 64 28.654 64 64v0c0 58.91-47.756 106.667-106.667 106.667v0z" />
<glyph unicode="&#xe91f;" glyph-name="abb_no-data" d="M742.4 486.4c-150.4 0-272-121.6-272-272s121.6-272 272-272c150.4 0 272 121.6 272 272 0 0 0 0 0 0-3.2 150.4-121.6 272-272 272zM806.4 208l51.2-51.2c16-16 16-41.6 0-60.8-16-16-41.6-16-57.6 0l-51.2 51.2c-3.2 3.2-9.6 3.2-16 0 0 0 0 0 0 0l-51.2-51.2c-16-16-41.6-16-60.8 0-16 16-16 41.6 0 60.8 0 0 0 0 0 0l51.2 51.2c3.2 3.2 3.2 9.6 0 16 0 0 0 0 0 0l-51.2 51.2c-16 16-16 41.6 0 60.8 16 16 41.6 16 60.8 0 0 0 0 0 0 0l51.2-51.2c3.2-3.2 9.6-3.2 16 0 0 0 0 0 0 0l51.2 51.2c16 16 41.6 16 60.8 0s16-41.6 0-60.8c0 0 0 0 0 0l-54.4-51.2c-3.2-3.2-3.2-9.6 0-16 0 0 0 0 0 0zM422.4 313.6h-51.2v108.8h108.8c32 41.6 73.6 73.6 121.6 96v73.6h147.2v-41.6c22.4 0 41.6-3.2 64-6.4v304c0 54.4-44.8 99.2-99.2 99.2h-601.6c-54.4 0-99.2-44.8-99.2-99.2 0 0 0 0 0 0v-496c0-54.4 44.8-99.2 99.2-99.2h297.6c3.2 19.2 6.4 41.6 12.8 60.8v0zM601.6 761.6h147.2v-108.8h-147.2v108.8zM371.2 761.6h169.6v-108.8h-169.6v108.8zM371.2 592h169.6v-105.6h-169.6v105.6zM307.2 313.6h-195.2c-19.2 0-38.4 16-38.4 35.2v70.4h233.6v-105.6zM307.2 483.2h-233.6v105.6h233.6v-105.6zM307.2 652.8h-233.6v108.8h233.6v-108.8z" />
<glyph unicode="&#xe920;" glyph-name="abb_performance-presentation" d="M512 960c-23.564 0-42.667-19.103-42.667-42.667v0-13.227c0-5.891-4.776-10.667-10.667-10.667v0h-373.333c-35.346 0-64-28.654-64-64v0-594.773c-0.001-0.127-0.001-0.277-0.001-0.427 0-35.346 28.654-64 64-64 0 0 0.001 0 0.001 0h372.053c5.891 0 10.667-4.776 10.667-10.667v0-47.36c-0.068-3.462-1.713-6.527-4.243-8.515l-0.024-0.018-128-90.453c-10.797-7.84-17.737-20.423-17.737-34.626 0-23.564 19.103-42.667 42.667-42.667 0.836 0 1.667 0.024 2.492 0.072l-0.114-0.005c9.304 0.062 17.889 3.093 24.868 8.191l-0.121-0.084 118.187 85.333c1.657 1.202 3.731 1.923 5.973 1.923s4.316-0.721 6.003-1.943l-0.030 0.021 118.187-85.333c6.858-5.014 15.442-8.045 24.732-8.107h0.015c23.446 0.155 42.394 19.198 42.394 42.666 0 14.164-6.902 26.716-17.526 34.477l-0.121 0.084-128 90.453c-2.554 2.006-4.198 5.071-4.266 8.522v47.371c0 5.891 4.776 10.667 10.667 10.667v0h374.613c34.792 0.717 62.722 29.091 62.722 63.987 0 0.155-0.001 0.309-0.002 0.463v-0.024 597.333c-1.389 33.805-28.799 60.768-62.656 61.439l-0.064 0.001h-373.333c-5.891 0-10.667 4.776-10.667 10.667v0 13.227c0 23.564-19.103 42.667-42.667 42.667v0zM610.56 588.8l85.333-85.333c2.085-1.722 4.74-2.823 7.646-2.985l0.034-0.002c2.95 0.096 5.623 1.21 7.696 3l-0.016-0.013 123.307 123.733c7.872 9.153 19.467 14.914 32.407 14.914 23.564 0 42.667-19.103 42.667-42.667 0-12.94-5.761-24.535-14.858-32.36l-0.056-0.047-130.987-130.987c-15.424-15.335-36.685-24.814-60.16-24.814s-44.736 9.479-60.164 24.818l-85.329 85.329c-1.77 2.050-4.354 3.356-7.244 3.413h-0.010c-3.035-0.042-5.758-1.344-7.674-3.407l-0.006-0.007-112.213-111.787c-15.028-15.284-35.926-24.754-59.036-24.754-0.395 0-0.79 0.003-1.184 0.008l0.060-0.001c-0.020 0-0.044 0-0.068 0-23.441 0-44.675 9.452-60.097 24.752l-42.661 42.661c-1.873 1.992-4.525 3.232-7.467 3.232s-5.594-1.241-7.462-3.227l-0.005-0.005-36.693-37.12c-7.715-7.662-18.344-12.397-30.080-12.397-23.577 0-42.691 19.113-42.691 42.691 0 11.842 4.821 22.557 12.608 30.291l42.669 42.669c15.424 15.335 36.685 24.814 60.16 24.814s44.736-9.479 60.164-24.818l42.663-42.663c1.873-1.992 4.525-3.232 7.467-3.232s5.594 1.241 7.462 3.227l0.005 0.005 113.493 113.067c15.424 15.335 36.685 24.814 60.16 24.814s44.736-9.479 60.164-24.818l-0.004 0.004z" />
<glyph unicode="&#xe921;" glyph-name="abb_setting" d="M953.6 544l-54.4 19.2c-16 6.4-28.8 16-35.2 32s-6.4 32 0 48v0l28.8 51.2c22.4 51.2 3.2 108.8-48 134.4-28.8 12.8-60.8 12.8-86.4 0l-51.2-25.6c-16-6.4-32-6.4-48 0s-25.6 19.2-32 35.2l-19.2 54.4c-19.2 51.2-76.8 80-128 60.8-28.8-9.6-51.2-32-60.8-60.8l-22.4-54.4c-6.4-16-16-28.8-32-35.2s-32-6.4-48 0l-51.2 25.6c-51.2 25.6-112 3.2-134.4-48-12.8-28.8-12.8-60.8 0-86.4l25.6-51.2c6.4-16 6.4-32 0-48s-19.2-28.8-35.2-32l-54.4-19.2c-51.2-19.2-80-76.8-60.8-128 9.6-28.8 32-51.2 60.8-60.8l54.4-19.2c16-6.4 28.8-16 35.2-32s6.4-32 0-48l-25.6-51.2c-25.6-48-6.4-108.8 44.8-134.4 28.8-16 60.8-16 89.6 0l51.2 25.6c16 6.4 32 6.4 48 0s25.6-19.2 32-35.2l19.2-54.4c19.2-51.2 76.8-80 128-60.8 28.8 9.6 51.2 32 60.8 60.8l19.2 54.4c6.4 16 16 28.8 32 35.2s32 6.4 48 0l51.2-25.6c48-25.6 108.8-9.6 137.6 41.6 16 28.8 16 67.2 0 96l-22.4 48c-6.4 16-6.4 32 0 48s19.2 28.8 35.2 32l54.4 19.2c51.2 19.2 80 76.8 60.8 128-12.8 28.8-35.2 51.2-67.2 60.8v0zM512 246.4c-83.2 3.2-153.6 51.2-188.8 124.8-44.8 102.4 6.4 224 108.8 265.6 0 0 0 0 0 0 105.6 41.6 224-6.4 265.6-112 44.8-102.4-6.4-224-108.8-265.6 0 0 0 0 0 0-25.6-9.6-51.2-12.8-76.8-12.8z" />
<glyph unicode="&#xe922;" glyph-name="abb_temperature-thermometer-snow" d="M970.24 502.613l-116.907-31.147c-5.722-1.727-10.695-4.353-15.032-7.754l0.098 0.074s0 2.133 0 2.987v175.787c0.197 1.664 0.309 3.592 0.309 5.547s-0.112 3.882-0.331 5.778l0.022-0.231c4.565-3.764 9.976-6.69 15.89-8.451l0.323-0.083 116.48-31.147c1.668-0.296 3.587-0.465 5.547-0.465s3.879 0.169 5.745 0.494l-0.199-0.029c0.402-0.014 0.875-0.021 1.349-0.021 19.781 0 36.419 13.462 41.25 31.724l0.067 0.298c0.904 3.279 1.424 7.044 1.424 10.931 0 19.515-13.102 35.971-30.99 41.049l-0.301 0.073-56.32 12.8c-5.47 1.795-9.924 5.419-12.742 10.135l-0.058 0.105c-1.801 3.062-2.864 6.746-2.864 10.677 0 1.969 0.267 3.876 0.766 5.686l-0.035-0.15 14.933 54.613c0.904 3.279 1.424 7.044 1.424 10.931 0 19.515-13.102 35.971-30.99 41.049l-0.301 0.073c-3.396 0.972-7.297 1.531-11.328 1.531-19.555 0-36.037-13.155-41.080-31.098l-0.072-0.3-32.853-116.907c-1.015-3.321-1.6-7.139-1.6-11.093s0.585-7.772 1.672-11.371l-0.072 0.278-5.973 4.693-174.507 109.653-6.4 2.987c5.813 2.177 10.787 5.368 14.944 9.397l85.322 85.322c7.795 7.733 12.621 18.45 12.621 30.293s-4.826 22.56-12.618 30.291l-0.003 0.003c-7.712 7.668-18.343 12.407-30.080 12.407s-22.368-4.74-30.082-12.409l-40.105-40.105c-3.867-3.898-9.225-6.31-15.147-6.31s-11.28 2.413-15.145 6.309l-40.108 40.108c-7.694 7.565-18.255 12.236-29.907 12.236-22.916 0-41.612-18.065-42.624-40.731l-0.003-0.091c-0.21-0.897-0.331-1.928-0.331-2.987s0.12-2.089 0.349-3.079l-0.018 0.092c5.4-8.462 10.811-18.398 15.557-28.703l0.657-1.59v-2.987l78.080-78.080c3.651-3.66 8.060-6.561 12.973-8.448l0.254-0.086c-1.343-1.244-2.595-2.497-3.799-3.795l-0.041-0.045-59.307-37.12c-3.093-1.904-5.124-5.272-5.124-9.113 0-0.096 0.001-0.192 0.004-0.288v0.014-77.653c0-0.009 0-0.019 0-0.029 0-4.013 2.217-7.509 5.492-9.33l0.054-0.028c1.567-1.024 3.486-1.632 5.547-1.632s3.98 0.609 5.586 1.656l-0.039-0.024 65.28 42.667c1.641 1.013 3.631 1.613 5.76 1.613s4.119-0.6 5.808-1.64l-0.048 0.027 120.747-75.52c3.098-2.002 5.12-5.439 5.12-9.348 0-0.014 0-0.027 0-0.041v0.002-114.347c0-0.012 0-0.025 0-0.039 0-3.909-2.022-7.346-5.077-9.322l-0.043-0.026-120.747-75.52c-1.641-1.013-3.631-1.613-5.76-1.613s-4.119 0.6-5.808 1.64l0.048-0.027-65.28 40.533c-1.567 1.024-3.486 1.632-5.547 1.632s-3.98-0.609-5.586-1.656l0.039 0.024c-3.33-1.848-5.547-5.344-5.547-9.358 0-0.010 0-0.020 0-0.031v0.002-54.187c-0.277-0.959-0.437-2.061-0.437-3.2s0.159-2.241 0.457-3.284l-0.021 0.084c7.678-10.593 15.314-22.728 22.163-35.352l0.877-1.768c0.939-1.737 2.235-3.17 3.799-4.24l0.041-0.026 37.547-23.467c2.218-1.267 4.886-2.556 7.641-3.673l0.466-0.167c-5.166-1.973-9.576-4.874-13.226-8.533l-3.841-3.841c-1.886-1.923-3.051-4.56-3.051-7.468 0-1.142 0.179-2.242 0.512-3.274l-0.021 0.076c7.377-22.907 12.541-49.511 14.447-77.013l0.059-1.067c0.005-3.557 2.3-6.576 5.49-7.663l0.057-0.017c0.807-0.264 1.736-0.416 2.7-0.416 2.437 0 4.647 0.973 6.262 2.551l-0.002-0.002c1.853 1.851 4.412 2.996 7.238 2.996 0.156 0 0.31-0.003 0.464-0.010l-0.022 0.001c0.113 0.005 0.246 0.008 0.38 0.008 2.712 0 5.155-1.15 6.869-2.989l0.005-0.006 47.787-47.787c7.709-7.648 18.326-12.374 30.047-12.374 0.087 0 0.173 0 0.26 0.001h-0.013c23.487 0.102 42.488 19.165 42.488 42.666 0 11.844-4.826 22.56-12.618 30.291l-85.336 85.336c-4.146 4.019-9.12 7.21-14.639 9.29l-0.294 0.097 6.4 2.987 175.36 109.653c1.649 0.932 3.057 2.068 4.253 3.398l0.013 0.015c-0.405-2.117-0.636-4.551-0.636-7.040s0.232-4.923 0.674-7.283l-0.038 0.243 29.867-116.48c5.046-18.345 21.578-31.598 41.206-31.598 0.514 0 1.025 0.009 1.534 0.027l-0.074-0.002h11.093c18.243 5.115 31.398 21.597 31.398 41.152 0 4.031-0.559 7.932-1.604 11.629l0.073-0.301-14.507 54.613c-0.445 1.643-0.7 3.53-0.7 5.476 0 3.948 1.051 7.651 2.89 10.843l-0.056-0.106c2.935 5.454 7.934 9.478 13.925 11.059l0.155 0.035 55.040 14.933c18.189 5.151 31.291 21.607 31.291 41.122 0 3.887-0.52 7.652-1.493 11.23l0.069-0.299c-4.899 18.559-21.536 32.020-41.317 32.020-4.283 0-8.418-0.631-12.318-1.805l0.302 0.078zM448 365.227v402.773c0 106.039-85.961 192-192 192s-192-85.961-192-192v0-402.773c0.001-0.064 0.002-0.139 0.002-0.214 0-2.551-0.973-4.875-2.569-6.62l0.007 0.008c-38.189-44.452-61.44-102.701-61.44-166.38 0-141.385 114.615-256 256-256 141.378 0 255.989 114.604 256 255.979v0.001c0 0.006 0 0.013 0 0.020 0 63.679-23.251 121.928-61.726 166.721l0.286-0.34c-1.589 1.738-2.562 4.061-2.562 6.612 0 0.075 0.001 0.15 0.003 0.225v-0.011zM256 21.333c-0.044 0-0.097 0-0.149 0-94.257 0-170.667 76.41-170.667 170.667 0 47.802 19.652 91.014 51.319 121.997l0.031 0.030c7.861 7.709 12.749 18.426 12.8 30.284v423.69c0 58.91 47.756 106.667 106.667 106.667s106.667-47.756 106.667-106.667v0-423.68c0.051-11.868 4.939-22.584 12.793-30.287l0.007-0.007c31.697-31.013 51.349-74.225 51.349-122.027 0-94.257-76.41-170.667-170.667-170.667-0.053 0-0.105 0-0.158 0h0.008zM293.973 268.373c-3.335 1.746-5.646 5.050-5.971 8.919l-0.003 0.041v405.333c0 17.673-14.327 32-32 32s-32-14.327-32-32v0-405.333c0.008-0.149 0.012-0.323 0.012-0.499 0-4.113-2.425-7.659-5.922-9.288l-0.063-0.026c-28.295-14.288-47.36-43.127-47.36-76.419 0-47.128 38.205-85.333 85.333-85.333s85.333 38.205 85.333 85.333c0 33.292-19.065 62.131-46.872 76.195l-0.488 0.224z" />
<glyph unicode="&#xe923;" glyph-name="abb_tick-circle" d="M788.48 684.8c-8.767 6.464-19.784 10.346-31.707 10.346-17.499 0-33.045-8.361-42.862-21.306l-0.097-0.134-252.587-341.333-162.56 126.72c-9.348 8.261-21.707 13.305-35.244 13.305-29.455 0-53.333-23.878-53.333-53.333 0-17.687 8.61-33.364 21.867-43.066l0.15-0.105 203.947-163.413c9.047-7.156 20.621-11.48 33.204-11.48 17.622 0 33.264 8.479 43.069 21.58l0.1 0.14 287.147 387.413c6.566 8.764 10.514 19.819 10.514 31.796 0 17.509-8.437 33.047-21.467 42.771l-0.141 0.1zM512 960c-282.77 0-512-229.23-512-512s229.23-512 512-512c282.77 0 512 229.23 512 512v0c0 282.77-229.23 512-512 512v0zM512 21.333c-235.641 0-426.667 191.025-426.667 426.667s191.025 426.667 426.667 426.667c235.641 0 426.667-191.025 426.667-426.667v0c0-235.641-191.025-426.667-426.667-426.667v0z" />
<glyph unicode="&#xe924;" glyph-name="abb_usb-port-computers" d="M1024 576c0 11.782-9.551 21.333-21.333 21.333v0h-981.333c-11.782 0-21.333-9.551-21.333-21.333v0-557.653c0.944-33.903 28.653-61.027 62.697-61.027 0.458 0 0.915 0.005 1.371 0.015l-0.068-0.001h896c0.388-0.009 0.845-0.014 1.303-0.014 34.044 0 61.753 27.124 62.695 60.94l0.002 0.087zM874.667 320h-170.667c-23.564 0-42.667 19.103-42.667 42.667v0 85.333c0 23.564 19.103 42.667 42.667 42.667v0h170.667c23.564 0 42.667-19.103 42.667-42.667v0-85.333c0-23.564-19.103-42.667-42.667-42.667v0zM917.333 192v-85.333c0-23.564-19.103-42.667-42.667-42.667v0h-170.667c-23.564 0-42.667 19.103-42.667 42.667v0 85.333c0 23.564 19.103 42.667 42.667 42.667v0h170.667c23.564 0 42.667-19.103 42.667-42.667v0zM533.333 277.333c0-117.821-95.513-213.333-213.333-213.333s-213.333 95.513-213.333 213.333c0 117.821 95.513 213.333 213.333 213.333v0c117.821 0 213.333-95.513 213.333-213.333v0zM21.333 661.333h981.333c7.922 0.069 14.846 4.281 18.718 10.571l0.055 0.096c1.72 3.148 2.731 6.896 2.731 10.88s-1.011 7.732-2.791 11.001l0.060-0.121-128 213.333c-11.524 19.066-32.141 31.615-55.688 31.615-0.822 0-1.641-0.015-2.456-0.046l0.118 0.003h-646.827c-0.631 0.022-1.373 0.035-2.118 0.035-22.839 0-42.921-11.806-54.475-29.648l-0.154-0.253-128-213.333c-1.72-3.148-2.731-6.896-2.731-10.88s1.011-7.732 2.791-11.001l-0.060 0.121c3.317-6.734 9.765-11.482 17.39-12.364l0.103-0.010zM768 405.333c0-11.782-9.551-21.333-21.333-21.333s-21.333 9.551-21.333 21.333c0 11.782 9.551 21.333 21.333 21.333s21.333-9.551 21.333-21.333zM853.333 405.333c0-11.782-9.551-21.333-21.333-21.333s-21.333 9.551-21.333 21.333c0 11.782 9.551 21.333 21.333 21.333s21.333-9.551 21.333-21.333zM768 149.333c0-11.782-9.551-21.333-21.333-21.333s-21.333 9.551-21.333 21.333c0 11.782 9.551 21.333 21.333 21.333s21.333-9.551 21.333-21.333zM853.333 149.333c0-11.782-9.551-21.333-21.333-21.333s-21.333 9.551-21.333 21.333c0 11.782 9.551 21.333 21.333 21.333s21.333-9.551 21.333-21.333zM461.227 264.96c12.302 13.092 19.86 30.766 19.86 50.205 0 24.622-12.126 46.412-30.732 59.724l-0.222 0.151c-4.886 5.129-11.611 8.468-19.114 8.956l-0.086 0.004c-7.253 0-16.213-4.267-17.067-11.52-6.018-34.020-32.245-60.534-65.618-66.905l-0.515-0.082c3.868 11.987 6.098 25.777 6.098 40.089 0 27.113-8.003 52.357-21.776 73.498l0.318-0.52c-12.975 11.802-30.295 19.029-49.303 19.029-25.179 0-47.396-12.68-60.614-32.004l-0.163-0.252c-4.704-4.38-7.944-10.276-8.94-16.907l-0.020-0.16c0-7.253 4.267-16.213 11.52-17.067 34.020-6.018 60.534-32.245 66.905-65.618l0.082-0.515c-11.987 3.868-25.777 6.098-40.089 6.098-27.113 0-52.357-8.003-73.498-21.776l0.52 0.318c-12.302-13.092-19.86-30.766-19.86-50.205 0-24.622 12.126-46.412 30.732-59.724l0.222-0.151c4.886-5.129 11.611-8.468 19.114-8.956l0.086-0.004c7.253 0 16.213 4.267 17.067 11.52 6.018 34.020 32.245 60.534 65.618 66.905l0.515 0.082c-3.868-11.987-6.098-25.777-6.098-40.089 0-27.113 8.003-52.357 21.776-73.498l-0.318 0.52c13.092-12.302 30.766-19.86 50.205-19.86 24.622 0 46.412 12.126 59.724 30.732l0.151 0.222c5.129 4.886 8.468 11.611 8.956 19.114l0.004 0.086c0 7.253-4.267 16.213-11.52 17.067-34.020 6.018-60.534 32.245-66.905 65.618l-0.082 0.515c11.987-3.868 25.777-6.098 40.089-6.098 27.113 0 52.357 8.003 73.498 21.776l-0.52-0.318z" />
<glyph unicode="&#xe925;" glyph-name="abb_webpage-live-programing" d="M438.4 710.4v211.2c0 19.2-12.8 32-32 32s-32-12.8-32-32v-214.4c0-19.2 12.8-32 32-32s32 16 32 35.2zM512 953.6c-19.2 0-32-12.8-32-32v-73.6c6.4-54.4 28.8-105.6 60.8-147.2l6.4-9.6c9.6-16 28.8-19.2 44.8-9.6 3.2 3.2 6.4 6.4 9.6 9.6l9.6 12.8c35.2 41.6 57.6 92.8 60.8 147.2v70.4c0 19.2-12.8 32-32 32s-32-12.8-32-32v-73.6c-3.2-25.6-9.6-48-22.4-67.2-3.2-6.4-9.6-6.4-16-3.2 0 0-3.2 3.2-3.2 3.2-12.8 19.2-19.2 44.8-22.4 67.2v73.6c0 19.2-12.8 32-32 32v0zM214.4 953.6c-19.2 0-32-12.8-32-32v-169.6c0-41.6 32-73.6 73.6-73.6h41.6c19.2 0 32 12.8 32 32s-12.8 32-32 32h-41.6c-6.4 0-9.6 3.2-9.6 9.6v169.6c0 19.2-16 32-32 32v0zM777.6 880c0 6.4 3.2 9.6 9.6 9.6h44.8c19.2 0 32 12.8 32 32s-12.8 32-32 32h-41.6c-41.6 0-73.6-32-73.6-73.6v-128c0-41.6 32-73.6 73.6-73.6h41.6c19.2 0 32 12.8 32 32s-12.8 32-32 32h-41.6c-6.4 0-9.6 3.2-9.6 9.6s3.2 9.6 9.6 9.6h41.6c19.2 0 32 12.8 32 32s-12.8 32-32 32h-41.6c-6.4 0-9.6 3.2-9.6 9.6v44.8zM896 646.4c-22.4 0-41.6-19.2-41.6-41.6v-553.6c0-12.8-9.6-22.4-22.4-22.4h-640c-12.8 0-22.4 9.6-22.4 22.4v550.4c0 22.4-19.2 41.6-41.6 41.6s-41.6-19.2-41.6-41.6v-576c0-48 38.4-86.4 86.4-86.4h681.6c48 0 86.4 38.4 86.4 86.4v576c-3.2 25.6-22.4 44.8-44.8 44.8zM361.6 432c0-35.346-28.654-64-64-64s-64 28.654-64 64c0 35.346 28.654 64 64 64s64-28.654 64-64zM758.4 432c0 19.2-12.8 32-32 32h-278.4c-19.2 0-32-12.8-32-32s12.8-32 32-32h278.4c16 0 32 12.8 32 32zM361.6 198.4c0-35.346-28.654-64-64-64s-64 28.654-64 64c0 35.346 28.654 64 64 64s64-28.654 64-64zM448 230.4c-19.2 0-32-12.8-32-32s12.8-32 32-32h233.6c19.2 0 32 12.8 32 32s-12.8 32-32 32h-233.6z" />
<glyph unicode="&#xe926;" glyph-name="abb_anamoly" d="M995.2 147.2l-156.8 156.8c-3.2 3.2-3.2 9.6 0 12.8 35.2 60.8 54.4 128 54.4 195.2 0 211.2-169.6 384-380.8 384-169.6 0-320-108.8-368-272-3.2-6.4 0-12.8 3.2-19.2s9.6-9.6 16-9.6h41.6c9.6 0 16 6.4 19.2 12.8 57.6 160 227.2 240 384 185.6s236.8-224 182.4-380.8c-54.4-153.6-224-236.8-380.8-182.4-76.8 28.8-140.8 86.4-172.8 160-3.2 6.4-9.6 12.8-19.2 12.8h-44.8c-6.4 0-12.8-3.2-16-9.6s-6.4-12.8-3.2-19.2c57.6-150.4 198.4-246.4 358.4-246.4 70.4 0 137.6 19.2 195.2 54.4 3.2 3.2 9.6 3.2 12.8 0l156.8-156.8c32-35.2 86.4-38.4 121.6-6.4s38.4 86.4 6.4 121.6c-6.4 3.2-6.4 6.4-9.6 6.4v0zM345.6 496l25.6 51.2c3.2 3.2 6.4 6.4 9.6 6.4s9.6-3.2 9.6-6.4l41.6-150.4c6.4-28.8 32-48 57.6-48h6.4c25.6 0 48 16 60.8 38.4l51.2 112c3.2 3.2 6.4 6.4 9.6 6.4s6.4-3.2 9.6-6.4l25.6-41.6c9.6-22.4 35.2-32 54.4-22.4 22.4 9.6 32 35.2 22.4 54.4 0 3.2-3.2 6.4-6.4 9.6l-51.2 89.6c-12.8 22.4-35.2 32-60.8 32-25.6-3.2-44.8-16-54.4-38.4l-41.6-89.6c-3.2-3.2-6.4-6.4-9.6-6.4s-9.6 3.2-9.6 6.4l-41.6 144c-6.4 25.6-28.8 44.8-54.4 51.2-28.8 3.2-54.4-9.6-67.2-35.2l-54.4-108.8h-236.8c-22.4 0-41.6-19.2-41.6-41.6s19.2-41.6 41.6-41.6h246.4c25.6 0 48 12.8 57.6 35.2z" />
<glyph unicode="&#xe927;" glyph-name="abb_Api" d="M992 3.2h-12.8v179.2h12.8c19.2 0 32 16 32 32 0 19.2-16 32-32 32h-92.8c-19.2 0-32-16-32-32 0-19.2 16-32 32-32h12.8v-179.2h-12.8c-19.2 0-32-16-32-32 0-19.2 16-32 32-32h92.8c19.2 0 32 16 32 32s-16 32-32 32v0zM710.4 246.4h-70.4c-19.2 0-32-16-32-32v-243.2c0-19.2 16-32 32-32 19.2 0 32 16 32 32v70.4h38.4c57.6 0 102.4 44.8 102.4 102.4 0 54.4-48 102.4-102.4 102.4v0zM710.4 105.6h-38.4v73.6h38.4c19.2 0 38.4-16 38.4-38.4 0-19.2-16-35.2-38.4-35.2 0 0 0 0 0 0zM508.8 160c-9.6 54.4-60.8 92.8-115.2 83.2-41.6-6.4-76.8-41.6-83.2-83.2 0-12.8-22.4-147.2-25.6-185.6-3.2-19.2 9.6-35.2 28.8-35.2 0 0 0 0 0 0 16-3.2 32 9.6 35.2 25.6 0 0 0 0 0 0l9.6 64h102.4l9.6-64c3.2-16 16-28.8 32-28.8h3.2c19.2 3.2 28.8 19.2 28.8 35.2 0 0 0 0 0 0-3.2 38.4-22.4 176-25.6 188.8zM368 92.8l6.4 57.6c3.2 16 19.2 28.8 35.2 28.8s32-12.8 35.2-28.8l9.6-57.6h-86.4zM300.8 236.8c25.6 32 67.2 51.2 108.8 51.2 48 0 89.6-22.4 118.4-60.8 16 3.2 32 9.6 44.8 16 12.8 28.8 38.4 44.8 67.2 48h70.4c22.4 0 41.6-3.2 60.8-12.8 0 9.6-3.2 19.2-9.6 25.6l-60.8 60.8c16 35.2 28.8 70.4 38.4 108.8h86.4c19.2 0 38.4 16 38.4 38.4 0 0 0 0 0 0v41.6c0 19.2-16 38.4-38.4 38.4v0h-86.4c-6.4 38.4-19.2 73.6-38.4 108.8l60.8 57.6c16 16 16 38.4 0 54.4l-54.4 54.4c-16 16-38.4 16-54.4 0l-54.4-67.2c-35.2 16-73.6 28.8-112 35.2v86.4c0 22.4-16 38.4-38.4 38.4h-38.4c-19.2 0-38.4-16-38.4-38.4v-86.4c-35.2-6.4-70.4-19.2-105.6-35.2l-60.8 60.8c-12.8 12.8-38.4 12.8-51.2 0l-54.4-54.4c-16-12.8-16-38.4 0-51.2l60.8-60.8c-16-35.2-28.8-70.4-35.2-108.8h-86.4c-19.2 0-38.4-16-38.4-38.4v-41.6c0-19.2 16-38.4 38.4-38.4h86.4c6.4-38.4 19.2-73.6 38.4-108.8l-60.8-57.6c-16-16-16-38.4 0-54.4l54.4-54.4c16-16 38.4-16 54.4 0l60.8 60.8c3.2-6.4 16-12.8 28.8-16zM432 675.2c89.6 0 163.2-73.6 166.4-163.2 0-89.6-73.6-163.2-163.2-166.4s-166.4 73.6-166.4 166.4c0 0 0 0 0 0 0 89.6 73.6 163.2 163.2 163.2z" />
<glyph unicode="&#xe928;" glyph-name="abb_time-stopwatch" d="M512 598.4c-12.8 0-22.4-9.6-22.4-22.4v-233.6c0-12.8 9.6-22.4 22.4-22.4h233.6c12.8 0 22.4 9.6 22.4 22.4 0 140.8-115.2 256-256 256zM832 588.8c-3.2 3.2-3.2 9.6 0 12.8l70.4 70.4c16 16 16 44.8 0 60.8s-44.8 16-60.8 0l-70.4-73.6c-3.2-3.2-9.6-3.2-12.8 0-57.6 44.8-124.8 70.4-195.2 80-6.4 0-9.6 6.4-9.6 12.8 0 0 0 0 0 0v112c0 6.4 3.2 9.6 9.6 9.6h76.8c22.4 0 41.6 19.2 41.6 41.6s-19.2 44.8-41.6 44.8h-256c-22.4 0-41.6-19.2-41.6-41.6s19.2-41.6 41.6-41.6h73.6c6.4 0 9.6-3.2 9.6-9.6v-108.8c0-6.4-3.2-9.6-9.6-9.6-220.8-35.2-377.6-236.8-348.8-460.8s230.4-380.8 454.4-352 380.8 230.4 352 454.4c-9.6 73.6-38.4 140.8-83.2 198.4zM512 22.4c-176 0-320 144-320 320s144 320 320 320 320-144 320-320-144-320-320-320z" />
<glyph unicode="&#xe929;" glyph-name="abb_bell-alert" d="M406.4 41.6h-128c-12.8 0-22.4-9.6-22.4-19.2 0-48 38.4-86.4 86.4-86.4s86.4 38.4 86.4 86.4c-3.2 9.6-12.8 19.2-22.4 19.2zM486.4 649.6c-28.8 25.6-64 41.6-102.4 48v70.4c0 22.4-19.2 41.6-41.6 41.6s-44.8-19.2-44.8-41.6v-70.4c-121.6-22.4-214.4-147.2-214.4-294.4v-192c0-22.4-19.2-41.6-41.6-41.6s-41.6-19.2-41.6-41.6 19.2-41.6 41.6-41.6h598.4c22.4 0 41.6 19.2 41.6 41.6s-19.2 41.6-41.6 41.6-41.6 19.2-41.6 41.6v192c0 25.6-3.2 54.4-9.6 80-51.2 44.8-86.4 102.4-102.4 166.4zM777.6 960c-134.4 0-246.4-108.8-246.4-246.4s108.8-246.4 246.4-246.4 246.4 112 246.4 246.4c0 137.6-108.8 246.4-246.4 246.4zM777.6 553.6c-89.6 0-160 70.4-160 160s70.4 160 160 160 160-70.4 160-160-70.4-160-160-160zM841.6 745.6h-32v54.4c0 19.2-12.8 32-32 32s-32-12.8-32-32v-86.4c0-16 16-32 32-32h64c19.2 0 32 12.8 32 32s-12.8 32-32 32z" />
<glyph unicode="&#xe92a;" glyph-name="abb_dashboard_1" d="M611.2 76.8c-3.2 3.2-9.6 6.4-16 6.4h-169.6c-6.4 0-12.8-3.2-16-6.4l-89.6-105.6c-3.2-6.4-3.2-16 0-22.4s12.8-12.8 19.2-12.8h342.4c12.8 0 22.4 9.6 22.4 22.4 0 3.2 0 6.4-3.2 12.8l-89.6 105.6zM960 960h-896c-35.2 0-64-28.8-64-64v-681.6c0-35.2 28.8-64 64-64h896c35.2 0 64 28.8 64 64v681.6c0 35.2-28.8 64-64 64zM937.6 342.4c0-12.8-9.6-22.4-22.4-22.4h-809.6c-12.8 0-22.4 9.6-22.4 22.4v512c3.2 9.6 12.8 19.2 22.4 19.2h809.6c12.8 0 22.4-9.6 22.4-22.4v-508.8zM425.6 515.2c3.2 0 3.2 3.2 3.2 6.4l115.2 160c12.8 19.2 9.6 44.8-9.6 60.8 0 0 0 0 0 0-19.2 12.8-44.8 9.6-60.8-9.6 0 0 0 0 0 0l-83.2-124.8c-3.2-3.2-9.6-6.4-12.8-3.2l-64 38.4c-19.2 12.8-44.8 9.6-57.6-9.6l-99.2-137.6c-12.8-19.2-9.6-44.8 9.6-60.8 19.2-12.8 44.8-9.6 60.8 9.6l70.4 99.2c3.2 3.2 9.6 6.4 12.8 3.2l64-38.4c19.2-9.6 38.4-6.4 51.2 6.4zM640 790.4h41.6c12.8 0 22.4-9.6 22.4-22.4v-297.6c0-12.8-9.6-22.4-22.4-22.4h-41.6c-12.8 0-22.4 9.6-22.4 22.4v297.6c0 12.8 9.6 22.4 22.4 22.4zM790.4 704h41.6c12.8 0 22.4-9.6 22.4-22.4v-214.4c0-12.8-9.6-22.4-22.4-22.4h-41.6c-12.8 0-22.4 9.6-22.4 22.4v214.4c0 12.8 9.6 22.4 22.4 22.4z" />
<glyph unicode="&#xe92b;" glyph-name="abb_dashboard_2" d="M124.8-64h774.4c70.4 0 124.8 57.6 124.8 124.8v0 774.4c0 67.2-57.6 124.8-124.8 124.8 0 0 0 0 0 0h-774.4c-67.2 0-124.8-57.6-124.8-124.8v-774.4c0-67.2 57.6-124.8 124.8-124.8 0 0 0 0 0 0zM899.2 22.4h-774.4c-22.4 0-41.6 19.2-41.6 41.6v768c0 22.4 19.2 41.6 41.6 41.6 0 0 3.2 0 3.2 0h768c22.4 0 41.6-19.2 41.6-41.6v-771.2c0-22.4-16-38.4-38.4-38.4zM803.2 294.4l-89.6-76.8c-3.2-3.2-9.6-3.2-12.8 0l-57.6 41.6c-12.8 9.6-28.8 16-48 12.8-19.2 0-35.2-6.4-48-19.2l-108.8-96c-16-16-19.2-41.6-3.2-60.8 6.4-9.6 19.2-12.8 32-16 9.6 0 19.2 3.2 28.8 9.6l96 86.4c3.2 3.2 9.6 3.2 12.8 0l57.6-41.6c12.8-9.6 32-16 48-16 19.2 0 35.2 6.4 48 19.2l99.2 89.6c19.2 16 22.4 41.6 6.4 60.8s-41.6 22.4-60.8 6.4c3.2 3.2 3.2 3.2 0 0v0zM611.2 528c0 3.2-3.2 3.2-6.4 3.2l-172.8 12.8c-3.2 0-6.4 0-6.4-3.2s0-6.4 0-9.6l38.4-169.6c0-3.2 3.2-3.2 3.2-6.4 3.2 0 6.4 0 6.4 0 70.4 28.8 121.6 89.6 140.8 163.2 0 3.2 0 6.4-3.2 9.6zM307.2 796.8c-3.2 0-3.2-3.2-6.4-6.4 0-3.2 0-6.4 0-6.4l96-179.2c0-3.2 3.2-3.2 6.4-3.2l201.6-16c3.2 0 6.4 0 6.4 3.2 3.2 3.2 3.2 3.2 3.2 6.4-9.6 128-124.8 224-252.8 214.4-16 0-35.2-6.4-54.4-12.8zM249.6 764.8c-3.2 0-6.4 0-6.4 0-102.4-76.8-124.8-224-44.8-329.6 44.8-57.6 115.2-92.8 188.8-92.8h12.8c3.2 0 6.4 0 6.4 3.2s0 6.4 0 6.4l-48 214.4c0 0 0 0 0 3.2l-102.4 188.8c0 3.2-3.2 3.2-6.4 6.4zM832 726.4c0-22.975-18.625-41.6-41.6-41.6s-41.6 18.625-41.6 41.6c0 22.975 18.625 41.6 41.6 41.6s41.6-18.625 41.6-41.6zM832 598.4c0-22.975-18.625-41.6-41.6-41.6s-41.6 18.625-41.6 41.6c0 22.975 18.625 41.6 41.6 41.6s41.6-18.625 41.6-41.6zM832 470.4c0-22.975-18.625-41.6-41.6-41.6s-41.6 18.625-41.6 41.6c0 22.975 18.625 41.6 41.6 41.6s41.6-18.625 41.6-41.6z" />
<glyph unicode="&#xe92c;" glyph-name="abb_data" d="M512 960c-227.2 0-473.6-80-473.6-224v0-576c0-147.2 243.2-224 473.6-224s473.6 80 473.6 224v572.8c0 147.2-243.2 227.2-473.6 227.2zM896 160c0-54.4-150.4-134.4-384-134.4s-384 80-384 134.4v35.2c0 6.4 6.4 12.8 12.8 12.8 3.2 0 3.2 0 6.4 0 112-57.6 236.8-83.2 364.8-80 128-3.2 252.8 25.6 364.8 80 6.4 3.2 12.8 0 16-3.2 0-3.2 0-3.2 0-6.4l3.2-38.4zM896 352c0-54.4-150.4-134.4-384-134.4s-384 80-384 134.4v35.2c0 6.4 6.4 12.8 12.8 12.8 3.2 0 3.2 0 6.4 0 115.2-54.4 240-83.2 364.8-80 128-3.2 252.8 25.6 364.8 80 6.4 3.2 12.8 0 16-3.2 0-3.2 0-3.2 0-6.4l3.2-38.4zM896 544c0-54.4-150.4-134.4-384-134.4s-384 80-384 134.4v35.2c0 6.4 6.4 12.8 12.8 12.8 3.2 0 3.2 0 6.4 0 115.2-54.4 240-83.2 364.8-80 128-3.2 252.8 25.6 364.8 80 6.4 3.2 12.8 0 16-3.2 0-3.2 0-3.2 0-6.4l3.2-38.4zM896 736v0c0-54.4-150.4-134.4-384-134.4s-384 76.8-384 134.4 150.4 134.4 384 134.4 384-80 384-134.4z" />
<glyph unicode="&#xe92d;" glyph-name="abb_datetime" d="M233.6 630.4c22.4 0 41.6 19.2 41.6 41.6s-16 41.6-41.6 41.6-41.6-19.2-41.6-41.6 19.2-41.6 41.6-41.6zM406.4 630.4c22.4 0 41.6 19.2 41.6 41.6s-19.2 41.6-41.6 41.6c-22.4 0-41.6-19.2-41.6-41.6s16-41.6 41.6-41.6zM576 630.4c22.4 0 41.6 19.2 41.6 41.6s-19.2 41.6-41.6 41.6-41.6-19.2-41.6-41.6 19.2-41.6 41.6-41.6zM233.6 480c22.4 0 41.6 19.2 41.6 41.6s-19.2 41.6-41.6 41.6-41.6-16-41.6-41.6c0-22.4 19.2-41.6 41.6-41.6zM406.4 480c22.4 0 41.6 19.2 41.6 41.6s-19.2 41.6-41.6 41.6c-22.4 0-41.6-19.2-41.6-41.6-3.2-22.4 16-41.6 41.6-41.6zM233.6 329.6c22.4 0 41.6 19.2 41.6 41.6s-16 44.8-41.6 44.8-41.6-19.2-41.6-41.6 19.2-44.8 41.6-44.8zM224 790.4h278.4v83.2h-204.8c-3.2 0-6.4 0-6.4 3.2-3.2 3.2-3.2 6.4-3.2 9.6v41.6c0 9.6-3.2 16-9.6 22.4s-12.8 9.6-22.4 9.6c-9.6 0-16-3.2-22.4-9.6s-9.6-12.8-9.6-22.4v-137.6zM105.6 256c-6.4 0-9.6 3.2-16 6.4-3.2 3.2-6.4 9.6-6.4 16v489.6c0 6.4 3.2 9.6 6.4 16 6.4 3.2 12.8 6.4 16 6.4h54.4v83.2h-118.4c-9.6 0-22.4-3.2-28.8-12.8-9.6-6.4-12.8-16-12.8-28.8v-576c0-22.4 9.6-44.8 25.6-60.8s38.4-25.6 60.8-25.6h323.2c-3.2 28.8-3.2 57.6 0 86.4h-304zM566.4 790.4h118.4c6.4 0 9.6-3.2 16-6.4 0-6.4 3.2-9.6 3.2-16v-217.6c28.8 3.2 57.6 3.2 86.4 0v281.6c0 12.8-3.2 22.4-12.8 28.8-6.4 9.6-19.2 12.8-28.8 12.8h-108.8c-3.2 0-6.4 0-6.4 3.2-3.2 3.2-3.2 3.2-3.2 6.4v44.8c0 9.6-3.2 16-9.6 22.4s-16 9.6-22.4 9.6c-9.6 0-16-3.2-22.4-9.6s-9.6-12.8-9.6-22.4v-137.6zM745.6 489.6c-54.4 0-108.8-16-153.6-48s-80-73.6-102.4-124.8c-22.4-51.2-25.6-105.6-16-160s38.4-102.4 76.8-140.8c38.4-38.4 89.6-64 140.8-76.8 54.4-9.6 108.8-6.4 160 16s92.8 57.6 124.8 102.4c32 44.8 48 99.2 48 153.6 0 73.6-28.8 144-80 195.2-54.4 54.4-124.8 83.2-198.4 83.2zM745.6 22.4c-38.4 0-73.6 12.8-105.6 32-32 22.4-57.6 51.2-70.4 86.4-16 35.2-19.2 73.6-9.6 112 6.4 38.4 25.6 70.4 51.2 99.2 25.6 25.6 60.8 44.8 99.2 51.2s76.8 3.2 112-9.6c35.2-16 64-38.4 86.4-70.4s32-67.2 32-105.6c0-25.6-6.4-51.2-16-73.6s-22.4-44.8-41.6-60.8c-19.2-19.2-38.4-32-60.8-41.6-25.6-16-51.2-19.2-76.8-19.2zM832 246.4h-54.4v73.6c0 9.6-3.2 16-9.6 22.4s-12.8 9.6-22.4 9.6c-9.6 0-16-3.2-22.4-9.6s-9.6-12.8-9.6-22.4v-105.6c0-9.6 3.2-16 9.6-22.4s12.8-9.6 22.4-9.6h86.4c9.6 0 16 3.2 22.4 9.6s9.6 12.8 9.6 22.4c0 9.6-3.2 16-9.6 22.4s-12.8 9.6-22.4 9.6z" />
<glyph unicode="&#xe92e;" glyph-name="abb_download" d="M972.8 233.6c-28.8 0-51.2-22.4-51.2-51.2v-80c0-38.4-28.8-67.2-67.2-67.2h-678.4c-38.4 0-67.2 28.8-67.2 67.2v80c-3.2 28.8-28.8 51.2-57.6 48-25.6-3.2-44.8-22.4-48-48v-80c0-96 76.8-172.8 172.8-172.8h675.2c96 0 172.8 76.8 172.8 172.8v80c0 28.8-22.4 51.2-51.2 51.2zM515.2 960c-44.8 0-83.2-38.4-83.2-83.2 0 0 0 0 0 0v-387.2c0-6.4-3.2-9.6-9.6-9.6h-115.2c-22.4-3.2-41.6-22.4-38.4-44.8 0-9.6 3.2-16 9.6-22.4l208-240c16-16 44.8-19.2 60.8-3.2 0 0 0 0 3.2 3.2l208 240c12.8 19.2 9.6 44.8-9.6 60.8-6.4 6.4-16 6.4-22.4 9.6h-118.4c-6.4 0-9.6 3.2-9.6 9.6v384c0 44.8-38.4 83.2-83.2 83.2z" />
<glyph unicode="&#xe92f;" glyph-name="abb_drag" d="M476.8 812.8c0-81.296-65.904-147.2-147.2-147.2s-147.2 65.904-147.2 147.2c0 81.296 65.904 147.2 147.2 147.2s147.2-65.904 147.2-147.2zM476.8 448c0-81.296-65.904-147.2-147.2-147.2s-147.2 65.904-147.2 147.2c0 81.296 65.904 147.2 147.2 147.2s147.2-65.904 147.2-147.2zM476.8 83.2c0-81.296-65.904-147.2-147.2-147.2s-147.2 65.904-147.2 147.2c0 81.296 65.904 147.2 147.2 147.2s147.2-65.904 147.2-147.2zM841.6 812.8c0-81.296-65.904-147.2-147.2-147.2s-147.2 65.904-147.2 147.2c0 81.296 65.904 147.2 147.2 147.2s147.2-65.904 147.2-147.2zM841.6 448c0-81.296-65.904-147.2-147.2-147.2s-147.2 65.904-147.2 147.2c0 81.296 65.904 147.2 147.2 147.2s147.2-65.904 147.2-147.2zM841.6 83.2c0-81.296-65.904-147.2-147.2-147.2s-147.2 65.904-147.2 147.2c0 81.296 65.904 147.2 147.2 147.2s147.2-65.904 147.2-147.2z" />
<glyph unicode="&#xe930;" glyph-name="abb_gauge" d="M512 816c-281.6 0-512-230.4-512-512v0-102.4c0-67.2 54.4-124.8 124.8-124.8h774.4c67.2 0 124.8 54.4 124.8 124.8v102.4c0 284.8-230.4 512-512 512 0 0 0 0 0 0zM899.2 163.2h-774.4c-22.4 0-38.4 16-38.4 38.4v57.6h105.6c19.2 0 32 12.8 32 32s-12.8 32-32 32h-105.6c3.2 54.4 16 105.6 35.2 153.6l86.4-51.2c16-9.6 35.2-3.2 41.6 12.8 9.6 16 3.2 35.2-12.8 41.6l-86.4 51.2c28.8 44.8 64 83.2 105.6 115.2l51.2-83.2c9.6-16 28.8-19.2 44.8-12.8 16 9.6 19.2 28.8 12.8 44.8v0l-54.4 86.4c51.2 28.8 112 44.8 169.6 48v-96c0-19.2 12.8-32 32-32s32 12.8 32 32v96c134.4-9.6 252.8-83.2 326.4-198.4l-89.6-51.2c-16-9.6-19.2-28.8-12.8-44.8 6.4-9.6 16-16 28.8-16 6.4 0 9.6 3.2 16 3.2l86.4 51.2c22.4-48 35.2-99.2 38.4-153.6h-105.6c-19.2 0-32-12.8-32-32s12.8-32 32-32h105.6v-57.6c0-16-16-35.2-38.4-35.2zM707.2 614.4c-16 9.6-32 3.2-41.6-9.6l-128-198.4c-6.4 3.2-16 3.2-25.6 3.2-54.4 0-96-41.6-96-96s41.6-96 96-96 96 41.6 96 96c0 22.4-6.4 41.6-19.2 57.6l128 198.4c9.6 12.8 3.2 35.2-9.6 44.8z" />
<glyph unicode="&#xe931;" glyph-name="abb_graph" d="M512 960c-281.6 0-512-230.4-512-512s230.4-512 512-512 512 230.4 512 512-230.4 512-512 512zM512 873.6c236.8 0 425.6-192 425.6-425.6h-112c-35.2 0-41.6 12.8-67.2 60.8l-12.8 22.4c-12.8 22.4-38.4 35.2-64 35.2s-48-19.2-57.6-41.6l-67.2-217.6-112 416c-6.4 28.8-32 44.8-60.8 44.8v0c-28.8 0-54.4-16-60.8-41.6-12.8-48-22.4-89.6-32-124.8-38.4-153.6-44.8-153.6-83.2-153.6h-121.6c0 236.8 188.8 425.6 425.6 425.6zM512 22.4c-201.6 0-377.6 144-419.2 342.4h115.2c108.8 0 128 64 163.2 217.6 3.2 16 12.8 44.8 12.8 44.8l108.8-409.6c9.6-25.6 32-44.8 60.8-44.8v0c28.8 0 51.2 16 60.8 41.6l76.8 233.6c22.4-54.4 76.8-86.4 134.4-86.4h105.6c-41.6-198.4-217.6-339.2-419.2-339.2z" />
<glyph unicode="&#xe932;" glyph-name="abb_no-email-template" d="M742.4 556.8c48 0 89.6-9.6 134.4-25.6 3.2 0 6.4 0 9.6 0 3.2 3.2 3.2 6.4 3.2 9.6v342.4c0 3.2-3.2 6.4-3.2 6.4-3.2 0-6.4 0-6.4 0l-361.6-268.8c-41.6-41.6-102.4-41.6-144 0l-361.6 268.8c-3.2 0-6.4 0-6.4 0-3.2 0-3.2-3.2-3.2-6.4v-444.8c0-41.6 32-73.6 73.6-73.6h358.4c3.2 0 6.4 3.2 9.6 6.4 54.4 112 169.6 185.6 297.6 185.6zM416 659.2c16-16 48-16 64 0v0l361.6 262.4c3.2 6.4 6.4 12.8 3.2 19.2-3.2 12.8-16 12.8-25.6 12.8h-745.6c-9.6 0-19.2 0-25.6-12.8-3.2-6.4 0-12.8 3.2-19.2l364.8-262.4zM934.4 416c-108.8 102.4-288 96-390.4-12.8s-96-288 12.8-390.4c108.8-102.4 288-96 390.4 12.8 102.4 112 96 288-12.8 390.4v0zM694.4 115.2c-12.8-12.8-32-9.6-44.8 0-9.6 9.6-12.8 28.8 0 44.8l44.8 48c3.2 3.2 3.2 9.6 0 12.8l-48 44.8c-12.8 12.8-9.6 32 0 44.8 9.6 9.6 28.8 12.8 44.8 0l48-44.8c3.2-3.2 9.6-3.2 12.8 0l44.8 48c9.6 12.8 28.8 16 44.8 3.2 12.8-9.6 16-28.8 3.2-44.8 0 0 0-3.2-3.2-3.2l-44.8-48c-3.2-3.2-3.2-9.6 0-12.8l48-44.8c12.8-9.6 16-28.8 3.2-44.8-9.6-12.8-28.8-16-44.8-3.2 0 0-3.2 0-3.2 3.2l-48 44.8c-3.2 3.2-9.6 3.2-12.8 0l-44.8-48z" />
<glyph unicode="&#xe933;" glyph-name="abb_performance" d="M1024 896c0 35.2-28.8 64-64 64h-896c-35.2 0-64-28.8-64-64v-681.6c0-35.2 28.8-64 64-64h896c35.2 0 64 28.8 64 64v681.6zM86.4 854.4c0 9.6 9.6 19.2 19.2 19.2h809.6c12.8 0 22.4-9.6 22.4-22.4v-227.2c0-12.8-9.6-22.4-22.4-22.4h-121.6c-9.6 0-16 6.4-19.2 12.8l-51.2 153.6c-9.6 35.2-48 51.2-80 41.6-19.2-6.4-35.2-22.4-41.6-41.6l-64-230.4c-3.2-6.4-9.6-9.6-12.8-6.4-3.2 0-6.4 3.2-6.4 6.4l-67.2 163.2c-9.6 25.6-32 41.6-57.6 41.6s-48-9.6-60.8-32l-67.2-99.2c-9.6-3.2-16-6.4-22.4-6.4h-137.6c-12.8 0-22.4 9.6-22.4 22.4v227.2zM937.6 342.4c0-12.8-9.6-22.4-22.4-22.4h-809.6c-12.8 0-22.4 9.6-22.4 22.4v156.8c0 12.8 9.6 22.4 22.4 22.4h169.6c12.8 0 25.6 6.4 35.2 19.2l57.6 80c3.2 6.4 9.6 6.4 12.8 3.2 3.2 0 3.2-3.2 3.2-3.2l80-192c9.6-25.6 32-41.6 60.8-41.6h3.2c28.8 0 51.2 19.2 57.6 44.8l64 220.8c0 3.2 6.4 6.4 9.6 9.6 3.2 0 9.6-3.2 9.6-6.4l32-86.4c9.6-25.6 32-44.8 60.8-41.6h150.4c12.8 0 22.4-9.6 22.4-22.4v-163.2zM611.2 76.8c-3.2 3.2-9.6 6.4-16 6.4h-169.6c-6.4 0-12.8-3.2-16-6.4l-89.6-105.6c-3.2-6.4-3.2-16 0-22.4s12.8-12.8 22.4-12.8h342.4c12.8 0 22.4 9.6 22.4 22.4 0 3.2 0 6.4-3.2 12.8l-92.8 105.6z" />
<glyph unicode="&#xe934;" glyph-name="abb_protect" d="M252.8 659.2h-64c-19.2 0-32-16-32-32 0-19.2 16-32 32-32h67.2c19.2 0 32 16 32 32-3.2 16-16 32-35.2 32v0zM252.8 524.8h-64c-19.2 0-32-16-32-32s16-32 32-32h67.2c19.2 0 32 16 32 32s-16 32-35.2 32v0zM252.8 393.6h-64c-19.2 0-32-16-32-32s16-32 32-32h67.2c19.2 0 32 16 32 32s-16 32-35.2 32v0zM614.4 592h-230.4c-19.2 0-32 16-32 32 0 19.2 16 32 32 32h230.4c19.2 0 32-16 32-32 3.2-16-12.8-32-32-32zM496 524.8h-112c-19.2 0-32-16-32-32s16-32 32-32h112c19.2 0 32 16 32 32s-16 32-32 32zM460.8 393.6h-76.8c-19.2 0-32-16-32-32s16-32 32-32h76.8c19.2 0 32 16 32 32s-12.8 32-32 32zM531.2 179.2v32h-451.2v534.4h704v-268.8c9.6 3.2 16 3.2 25.6 3.2 12.8 0 25.6-3.2 35.2-6.4l25.6-9.6v406.4c0 48-38.4 89.6-89.6 89.6h-704c-44.8 0-83.2-38.4-83.2-89.6v-662.4c0-48 38.4-89.6 89.6-89.6h457.6c-6.4 22.4-9.6 41.6-9.6 60.8zM995.2 355.2l-169.6 57.6c-9.6 3.2-19.2 3.2-28.8 0l-169.6-57.6c-19.2-6.4-28.8-22.4-28.8-41.6v-131.2c3.2-96 60.8-179.2 147.2-217.6l48-22.4c12.8-6.4 25.6-6.4 35.2 0l48 22.4c86.4 35.2 144 121.6 147.2 214.4v131.2c0 19.2-12.8 38.4-28.8 44.8zM940.8 252.8l-128-160c-12.8-12.8-32-16-48-6.4 0 0-3.2 0-3.2 3.2l-64 64c-12.8 12.8-12.8 32 0 44.8 0 0 0 0 0 0 12.8 12.8 35.2 12.8 48 0l38.4-38.4 105.6 131.2c12.8 12.8 32 16 48 6.4 12.8-9.6 12.8-32 3.2-44.8v0z" />
<glyph unicode="&#xe935;" glyph-name="abb_search-remove" d="M1011.2 6.4l-326.4 329.6c131.2 166.4 105.6 406.4-60.8 540.8s-406.4 105.6-540.8-60.8-105.6-406.4 60.8-540.8c140.8-112 339.2-112 480 0l326.4-326.4c16-16 44.8-16 60.8 0 0 0 0 0 0 0 16 16 16 41.6 0 57.6zM86.4 576c0 166.4 134.4 297.6 297.6 297.6s297.6-134.4 297.6-297.6-134.4-297.6-297.6-297.6-297.6 131.2-297.6 297.6zM249.6 649.6l76.8-76.8-76.8-76.8c-16-16-16-44.8 0-60.8s44.8-16 60.8 0l76.8 73.6 76.8-73.6c16-16 44.8-16 60.8 0s16 44.8 0 60.8l-80 80 76.8 76.8c16 19.2 12.8 44.8-3.2 60.8-16 12.8-38.4 12.8-54.4 0l-80-80-73.6 76.8c-19.2 16-44.8 12.8-60.8-3.2-12.8-16-12.8-41.6 0-57.6z" />
<glyph unicode="&#xe936;" glyph-name="abb_template-defination" d="M640 726.4h41.6c12.8 0 22.4-9.6 22.4-22.4v-297.6c0-12.8-9.6-22.4-22.4-22.4h-41.6c-12.8 0-22.4 9.6-22.4 22.4v297.6c0 12.8 9.6 22.4 22.4 22.4zM790.4 640h41.6c12.8 0 22.4-9.6 22.4-22.4v-214.4c0-12.8-9.6-22.4-22.4-22.4h-41.6c-12.8 0-22.4 9.6-22.4 22.4v214.4c0 12.8 9.6 22.4 22.4 22.4zM896 934.4c-16 16-38.4 25.6-60.8 25.6h-492.8c-48 0-86.4-38.4-86.4-86.4v-272c0-6.4 3.2-9.6 9.6-9.6 22.4-3.2 41.6-6.4 60.8-12.8 6.4-3.2 12.8 0 12.8 6.4 0 0 0 3.2 0 3.2v265.6c0 12.8 9.6 22.4 22.4 22.4h464c6.4 0 9.6-3.2 16-6.4l89.6-89.6c3.2-3.2 6.4-9.6 6.4-16v-572.8c0-12.8-9.6-22.4-22.4-22.4h-313.6c-6.4 0-9.6-3.2-9.6-9.6 0 0 0-3.2 0-3.2 3.2-19.2 3.2-38.4 0-57.6 0-6.4 3.2-12.8 9.6-12.8 0 0 0 0 3.2 0h336c48 0 86.4 38.4 86.4 86.4v598.4c0 22.4-9.6 44.8-25.6 60.8l-105.6 102.4zM550.4 448c3.2 0 6.4 0 6.4 3.2v60.8c0 12.8-9.6 22.4-22.4 22.4h-41.6c-12.8 0-22.4-9.6-22.4-22.4v-22.4c0-3.2 3.2-6.4 6.4-6.4 25.6-3.2 51.2-16 73.6-35.2zM329.6 233.6c0-35.346-28.654-64-64-64s-64 28.654-64 64c0 35.346 28.654 64 64 64s64-28.654 64-64zM19.2 172.8c-22.4-25.6-25.6-60.8-9.6-89.6s51.2-44.8 83.2-35.2l60.8 16c9.6 3.2 19.2-3.2 22.4-12.8l19.2-60.8c12.8-41.6 54.4-64 96-51.2 22.4 6.4 41.6 25.6 51.2 51.2l19.2 60.8c3.2 9.6 12.8 16 22.4 12.8l60.8-12.8c41.6-6.4 80 19.2 89.6 60.8 3.2 22.4-3.2 44.8-16 64l-41.6 44.8c-6.4 6.4-6.4 19.2 0 25.6l41.6 44.8c28.8 28.8 32 76.8 3.2 108.8-19.2 19.2-48 28.8-73.6 19.2l-60.8-16c-9.6-3.2-19.2 3.2-22.4 12.8l-16 57.6c-12.8 41.6-54.4 64-96 51.2-22.4-6.4-41.6-25.6-51.2-51.2l-22.4-57.6c-3.2-9.6-12.8-16-22.4-12.8l-60.8 12.8c-32 6.4-67.2-6.4-83.2-35.2s-12.8-67.2 9.6-89.6l41.6-44.8c6.4-6.4 6.4-19.2 0-25.6l-44.8-48zM265.6 361.6c70.4 0 128-57.6 128-128s-57.6-128-128-128-128 57.6-128 128 57.6 128 128 128z" />
<glyph unicode="&#xe937;" glyph-name="abb_upload" d="M-16 118.4c0-96 76.8-172.8 172.8-172.8h694.4c96 0 172.8 76.8 172.8 172.8v80c3.2 28.8-19.2 54.4-48 57.6s-54.4-19.2-57.6-48c0-3.2 0-6.4 0-9.6v-80c0-38.4-28.8-67.2-67.2-70.4h-694.4c-38.4 0-70.4 32-70.4 70.4v0 80c3.2 28.8-16 57.6-48 57.6-28.8 3.2-54.4-19.2-57.6-48 0-3.2 0-6.4 0-9.6l3.2-80zM502.4 131.2c48 0 86.4 38.4 86.4 86.4v393.6c0 3.2 3.2 9.6 9.6 9.6h115.2c22.4 0 41.6 22.4 41.6 44.8 0 9.6-3.2 19.2-9.6 25.6l-211.2 246.4c-16 19.2-44.8 19.2-60.8 3.2 0 0-3.2-3.2-3.2-3.2l-211.2-243.2c-16-19.2-16-44.8 3.2-60.8 6.4-6.4 19.2-9.6 28.8-9.6h115.2c3.2 0 9.6-3.2 9.6-9.6v-396.8c3.2-51.2 41.6-86.4 86.4-86.4z" />
<glyph unicode="&#xe938;" glyph-name="abb_view" d="M985.6 547.2c-3.2 6.4-208 240-470.4 240-169.6 0-339.2-92.8-470.4-240-51.2-57.6-51.2-140.8 0-198.4 188.8-208 377.6-240 470.4-240s284.8 32 470.4 240c51.2 54.4 51.2 140.8 0 198.4zM921.6 403.2c-3.2-6.4-185.6-217.6-409.6-211.2-208 6.4-361.6 160-409.6 211.2-22.4 25.6-22.4 60.8 0 86.4 99.2 112 252.8 214.4 409.6 211.2 192 6.4 361.6-156.8 409.6-211.2 22.4-25.6 22.4-60.8 0-86.4zM515.2 617.6h-16c-3.2 0-6.4-3.2-9.6-6.4s-3.2-6.4 0-9.6c25.6-38.4 16-92.8-22.4-118.4-12.8-9.6-28.8-12.8-48-12.8s-38.4 6.4-54.4 19.2c-3.2 3.2-6.4 3.2-9.6 0-3.2 0-6.4-3.2-6.4-6.4-3.2-9.6-3.2-22.4-3.2-32 0-92.8 76.8-169.6 169.6-169.6s169.6 76.8 169.6 169.6-76.8 166.4-169.6 166.4z" />
<glyph unicode="&#xe939;" glyph-name="abb_no-server" d="M108.8 704h726.4c54.4 0 105.6 44.8 105.6 105.6v0 41.6c0 60.8-48 105.6-105.6 105.6v0h-726.4c-60.8 0-105.6-48-105.6-105.6v-41.6c-3.2-60.8 44.8-105.6 105.6-105.6zM153.6 832c0 25.6 22.4 44.8 44.8 44.8s51.2-19.2 51.2-44.8-22.4-51.2-44.8-51.2c-12.8 0-22.4 6.4-32 12.8-12.8 12.8-19.2 25.6-19.2 38.4zM323.2 832c0 25.6 19.2 48 44.8 48s48-19.2 48-44.8-19.2-48-44.8-48v0c-28.8-3.2-48 19.2-48 44.8zM748.8 550.4c54.4 0 112-12.8 160-38.4 9.6-6.4 22.4 0 28.8 9.6 3.2 3.2 3.2 6.4 3.2 9.6v22.4c0 60.8-48 105.6-105.6 105.6v0h-726.4c-60.8 0-105.6-48-105.6-105.6v-41.6c0-60.8 48-105.6 105.6-105.6h348.8c6.4 0 12.8 3.2 16 9.6 64 86.4 166.4 134.4 275.2 134.4zM419.2 531.2c0-25.6-19.2-44.8-44.8-44.8s-44.8 19.2-44.8 44.8c0 25.6 19.2 44.8 44.8 44.8 12.8 0 22.4-6.4 32-12.8 6.4-6.4 12.8-19.2 12.8-32zM249.6 531.2c0-25.6-22.4-44.8-44.8-44.8-25.6 0-44.8 22.4-44.8 44.8 0 25.6 22.4 44.8 44.8 44.8 12.8 0 22.4-6.4 32-12.8 9.6-9.6 12.8-19.2 12.8-32v0zM0 211.2c0-60.8 48-105.6 105.6-105.6h291.2c12.8 0 22.4 9.6 19.2 22.4 0 3.2 0 3.2 0 6.4-16 67.2-9.6 134.4 12.8 201.6 3.2 9.6 0 22.4-12.8 25.6-3.2 0-6.4 0-6.4 0h-300.8c-60.8 0-105.6-48-105.6-105.6v0-44.8h-3.2zM153.6 233.6c0 25.6 22.4 44.8 44.8 44.8 25.6 0 44.8-22.4 44.8-44.8s-19.2-48-41.6-48c-12.8 0-22.4 6.4-32 12.8-9.6 9.6-16 22.4-16 35.2zM470.4 211.2c0-153.6 124.8-275.2 275.2-275.2s275.2 124.8 275.2 275.2-124.8 275.2-275.2 275.2-275.2-121.6-275.2-275.2v0zM636.8 278.4c-12.8 12.8-12.8 32 0 44.8s32 12.8 44.8 0v0l60.8-60.8c3.2-3.2 9.6-3.2 16 0v0l60.8 60.8c12.8 12.8 32 9.6 44.8 0 12.8-12.8 12.8-32 0-41.6l-60.8-57.6c-3.2-3.2-3.2-9.6 0-16v0l60.8-60.8c12.8-12.8 12.8-32 0-44.8s-32-12.8-44.8 0l-60.8 57.6c-3.2 3.2-9.6 3.2-16 0v0l-60.8-60.8c-12.8-12.8-32-12.8-44.8 0s-12.8 32 0 44.8l60.8 60.8c3.2 3.2 3.2 9.6 0 16v0l-60.8 57.6z" />
<glyph unicode="&#xe93a;" glyph-name="abb_timeout" d="M505.6 752c0 19.2-12.8 32-28.8 35.2 0 0 0 0-3.2 0v0c-16 0-32-12.8-32-32v0-227.2h-115.2c-19.2 0-32-12.8-32-32s12.8-32 32-32h147.2c16 0 32 16 32 32v256zM409.6 99.2c-217.6 35.2-364.8 240-329.6 457.6s236.8 364.8 454.4 329.6c172.8-25.6 307.2-163.2 332.8-336 0-19.2 16-32 35.2-28.8 19.2 0 32 16 28.8 35.2v3.2c-38.4 252.8-272 428.8-524.8 393.6s-428.8-272-393.6-524.8c28.8-201.6 185.6-358.4 384-390.4h3.2c19.2 0 32 16 32 32 3.2 12.8-6.4 28.8-22.4 28.8v0zM745.6-64c153.6 0 278.4 124.8 278.4 278.4s-124.8 278.4-278.4 278.4-278.4-124.8-278.4-278.4c3.2-153.6 124.8-278.4 278.4-278.4zM694.4 220.8l-60.8 60.8c-12.8 12.8-12.8 32 0 44.8s32 12.8 44.8 0c0 0 0 0 0 0l60.8-60.8c3.2-3.2 9.6-3.2 16 0 0 0 0 0 0 0l60.8 60.8c12.8 12.8 32 12.8 44.8 0s12.8-32 0-44.8c0 0 0 0 0 0l-60.8-60.8c-3.2-3.2-3.2-9.6 0-16 0 0 0 0 0 0l60.8-60.8c12.8-12.8 12.8-32 0-44.8s-32-12.8-44.8 0l-60.8 60.8c-3.2 3.2-9.6 3.2-16 0 0 0 0 0 0 0l-60.8-60.8c-12.8-12.8-32-12.8-44.8 0s-12.8 32 0 44.8l60.8 60.8c3.2 6.4 3.2 12.8 0 16 0 0 0 0 0 0z" />
<glyph unicode="&#xe93b;" glyph-name="abb_hourglass" d="M874.667 21.333h-42.667v149.333c-0.109 117.954-63.935 220.975-158.91 276.514l-1.516 0.819c96.556 56.198 160.427 159.204 160.427 277.127 0 0.073 0 0.145 0 0.218v-0.012 149.333h42.667c23.564 0 42.667 19.103 42.667 42.667s-19.103 42.667-42.667 42.667v0h-725.333c-23.564 0-42.667-19.103-42.667-42.667s19.103-42.667 42.667-42.667v0h42.667v-149.333c0-0.061 0-0.134 0-0.206 0-117.923 63.871-220.929 158.906-276.309l1.521-0.818c-96.492-56.358-160.317-159.38-160.427-277.318v-149.349h-42.667c-23.564 0-42.667-19.103-42.667-42.667s19.103-42.667 42.667-42.667v0h725.333c23.564 0 42.667 19.103 42.667 42.667s-19.103 42.667-42.667 42.667v0zM277.333 170.667c-0.001 0.209-0.001 0.457-0.001 0.705 0 129.838 105.255 235.093 235.093 235.093 8.114 0 16.132-0.411 24.034-1.214l-0.993 0.082c119.753-15.751 211.235-117.175 211.235-239.966 0-1.437-0.013-2.871-0.037-4.303l0.003 0.215v-118.613c0-11.782-9.551-21.333-21.333-21.333v0h-426.667c-11.782 0-21.333 9.551-21.333 21.333v0zM298.667 874.667h426.667c11.782 0 21.333-9.551 21.333-21.333v0-117.76c0.043-1.694 0.067-3.689 0.067-5.689 0-122.633-91.57-223.879-210.065-239.092l-1.202-0.126c-7.038-0.749-15.204-1.177-23.47-1.177-129.603 0-234.667 105.064-234.667 234.667 0 0.414 0.001 0.827 0.003 1.24v-0.064 128c0 11.782 9.551 21.333 21.333 21.333v0zM512 549.12c63.627 2.099 118.238 38.715 145.899 91.645l0.448 0.942c1.797 3.060 2.858 6.739 2.858 10.667s-1.061 7.607-2.913 10.767l0.055-0.101c-3.736 6.385-10.542 10.618-18.34 10.667h-256.007c-8.13-0.403-15.027-5.3-18.292-12.243l-0.055-0.13c-1.797-3.060-2.858-6.739-2.858-10.667s1.061-7.607 2.913-10.767l-0.055 0.101c28.522-53.184 83.043-89.138 146.112-90.875l0.234-0.005zM544 294.827c-7.856 8.877-19.278 14.445-32 14.445s-24.144-5.568-31.961-14.4l-0.039-0.045-142.080-160c-6.59-7.473-10.613-17.347-10.613-28.16 0-23.545 19.072-42.636 42.61-42.667h284.163c23.541 0.031 42.613 19.121 42.613 42.667 0 10.813-4.023 20.687-10.653 28.207l0.040-0.047z" />
<glyph unicode="&#xe93c;" glyph-name="abb_no-datafile" d="M640 725.333h42.667c11.782 0 21.333-9.551 21.333-21.333v-298.667c0-11.782-9.551-21.333-21.333-21.333h-42.667c-11.782 0-21.333 9.551-21.333 21.333v298.667c0 11.782 9.551 21.333 21.333 21.333zM789.333 640h42.667c11.782 0 21.333-9.551 21.333-21.333v-213.333c0-11.782-9.551-21.333-21.333-21.333h-42.667c-11.782 0-21.333 9.551-21.333 21.333v213.333c0 11.782 9.551 21.333 21.333 21.333zM896 934.827c-15.377 15.467-36.637 25.071-60.14 25.173h-494.527c-47.128 0-85.333-38.205-85.333-85.333v0-310.613c0.208-5.659 4.624-10.224 10.201-10.664l0.039-0.002c15.787 0 42.667 0 63.573-3.413 0.256-0.022 0.553-0.034 0.853-0.034 5.891 0 10.667 4.776 10.667 10.667 0 0.012 0 0.024 0 0.036v-0.002 292.693c0 11.782 9.551 21.333 21.333 21.333v0h464.213c0.073 0.001 0.159 0.001 0.244 0.001 5.795 0 11.017-2.458 14.678-6.389l0.011-0.012 90.453-90.453c3.943-3.672 6.401-8.893 6.401-14.689 0-0.086-0.001-0.172-0.002-0.257v0.013-570.88c0-11.782-9.551-21.333-21.333-21.333v0h-292.693c-5.168-0.145-9.407-3.944-10.231-8.898l-0.009-0.062c-4.461-23.914-10.368-44.817-17.93-64.91l0.864 2.616c-0.474-1.138-0.749-2.459-0.749-3.845 0-5.655 4.585-10.24 10.24-10.24 0.113 0 0.227 0.002 0.339 0.006h331.504c47.128 0 85.333 38.205 85.333 85.333v0 601.173c-0.102 23.523-9.706 44.783-25.169 60.156l-0.004 0.004zM536.32 435.2c1.943-2.014 4.666-3.265 7.681-3.265 5.839 0 10.582 4.692 10.666 10.511v69.555c0 11.782-9.551 21.333-21.333 21.333v0h-42.667c-11.782 0-21.333-9.551-21.333-21.333v0-9.813c0.114-4.909 2.802-9.167 6.762-11.485l0.065-0.035c22.581-16.534 42.308-34.771 59.777-55.012l0.383-0.454zM277.333-64c153.167 0 277.333 124.166 277.333 277.333s-124.166 277.333-277.333 277.333c-153.167 0-277.333-124.166-277.333-277.333v0c0.242-153.069 124.264-277.091 277.31-277.333h0.024zM224.427 221.013l-60.16 60.16c-6.274 5.858-10.185 14.178-10.185 23.412 0 17.673 14.327 32 32 32 9.234 0 17.554-3.911 23.394-10.166l0.017-0.019 60.16-60.16c1.943-2.014 4.665-3.264 7.68-3.264s5.737 1.251 7.677 3.261l60.163 60.163c5.858 6.274 14.178 10.185 23.412 10.185 17.673 0 32-14.327 32-32 0-9.234-3.911-17.554-10.166-23.394l-0.019-0.017-60.16-60.16c-2.014-1.943-3.264-4.665-3.264-7.68s1.251-5.737 3.261-7.677l60.163-60.163c5.321-5.699 8.588-13.376 8.588-21.815 0-17.673-14.327-32-32-32-8.44 0-16.116 3.267-21.834 8.606l0.019-0.017-60.16 60.16c-1.943 2.014-4.665 3.264-7.68 3.264s-5.737-1.251-7.677-3.261l-60.163-60.163c-5.699-5.321-13.376-8.588-21.815-8.588-17.673 0-32 14.327-32 32 0 8.44 3.267 16.116 8.606 21.834l-0.017-0.019 60.16 60.16c2.014 1.943 3.264 4.665 3.264 7.68s-1.251 5.737-3.261 7.677l-0.003 0.003z" />
<glyph unicode="&#xe93d;" glyph-name="abb_security" d="M524.8-60.8h16c432 166.4 412.8 790.4 412.8 816l-22.4 22.4c-147.2 0-284.8 67.2-377.6 176h-35.2c-96-105.6-233.6-172.8-384-172.8l-22.4-25.6c0-25.6-19.2-649.6 412.8-816zM534.4 860.8c86.4-96 211.2-153.6 342.4-160 0-102.4-25.6-553.6-342.4-684.8-320 128-345.6 582.4-345.6 681.6 131.2 6.4 256 64 345.6 163.2zM374.4 496l115.2-118.4 236.8 233.6 60.8-60.8-297.6-291.2-172.8 176z" />
<glyph unicode="&#xe93e;" glyph-name="abb_page-search" d="M364.8 179.2h-240c-19.2 0-41.6 16-41.6 41.6v496c0 6.4 3.2 9.6 9.6 9.6h793.6c6.4 0 9.6-3.2 9.6-9.6v-195.2c0-19.2 16-41.6 41.6-41.6 19.2 0 41.6 16 41.6 41.6v291.2c0 67.2-57.6 121.6-121.6 121.6h-736c-67.2 0-121.6-57.6-121.6-121.6v-588.8c0-67.2 57.6-121.6 121.6-121.6h243.2c19.2 0 41.6 16 41.6 41.6 3.2 16-12.8 35.2-41.6 35.2zM396.8 848c9.6 16 38.4 22.4 57.6 12.8 6.4 0 9.6-6.4 12.8-12.8 6.4-12.8 6.4-25.6 0-41.6-9.6-16-38.4-22.4-57.6-12.8-6.4 3.2-9.6 6.4-12.8 12.8-9.6 16-9.6 32 0 41.6zM252.8 848c9.6 19.2 38.4 25.6 57.6 16 6.4-3.2 9.6-9.6 12.8-16 6.4-12.8 6.4-25.6 0-41.6-12.8-16-38.4-22.4-57.6-6.4-6.4 3.2-9.6 6.4-12.8 12.8-6.4 9.6-6.4 25.6 0 35.2zM105.6 844.8c9.6 19.2 35.2 25.6 54.4 19.2 6.4-3.2 12.8-9.6 16-16 6.4-12.8 6.4-25.6 0-41.6-12.8-16-35.2-22.4-51.2-6.4-16 6.4-22.4 16-22.4 28.8 0 6.4 3.2 12.8 3.2 16zM1014.4 6.4l-92.8 92.8c-3.2 3.2-3.2 9.6 0 9.6 83.2 115.2 51.2 275.2-64 358.4s-275.2 51.2-358.4-64c-83.2-115.2-51.2-275.2 64-358.4 89.6-64 208-64 294.4 0 3.2 3.2 9.6 3.2 9.6 0l92.8-92.8c12.8-12.8 38.4-12.8 51.2 0 16 16 16 41.6 3.2 54.4zM710.4 76.8c-102.4 0-185.6 83.2-185.6 185.6s83.2 185.6 185.6 185.6c102.4 0 185.6-83.2 185.6-185.6 0-105.6-86.4-185.6-185.6-185.6zM748.8 259.2l51.2 51.2c9.6 12.8 9.6 32-3.2 41.6-9.6 9.6-25.6 9.6-35.2 0l-54.4-54.4-51.2 54.4c-12.8 9.6-32 9.6-41.6-3.2-9.6-9.6-9.6-28.8 0-38.4l51.2-51.2-51.2-51.2c-9.6-9.6-9.6-32 0-41.6s32-9.6 41.6 0l51.2 51.2 51.2-51.2c9.6-9.6 32-9.6 41.6 0s9.6 32 0 41.6l-51.2 51.2z" />
<glyph unicode="&#xe93f;" glyph-name="abb_search-graph" d="M777.6 0h-745.6c-19.2 0-32-12.8-32-32s12.8-32 32-32h745.6c19.2 0 32 12.8 32 32s-12.8 32-32 32zM64 553.6c-12.8 0-22.4-9.6-22.4-22.4v-480c0-6.4 3.2-9.6 9.6-9.6h150.4c6.4 0 9.6 3.2 9.6 9.6v480c0 12.8-9.6 22.4-22.4 22.4h-124.8zM297.6 54.4c0-6.4 3.2-9.6 9.6-9.6h150.4c6.4 0 9.6 3.2 9.6 9.6v278.4c0 12.8-9.6 9.6-22.4 9.6h-128c-12.8 0-22.4-9.6-22.4-22.4v-265.6zM713.6 41.6c6.4 0 9.6 3.2 9.6 9.6v182.4c0 12.8-9.6 9.6-22.4 9.6h-128c-12.8 0-22.4-9.6-22.4-22.4v-169.6c0-6.4 3.2-9.6 9.6-9.6h153.6zM902.4 476.8c-3.2 3.2-3.2 9.6 0 12.8 96 134.4 60.8 320-73.6 416s-320 60.8-416-73.6-60.8-320 73.6-416c102.4-73.6 240-73.6 342.4 0 3.2 3.2 9.6 3.2 12.8 0l108.8-108.8c16-16 44.8-16 60.8 0 0 0 0 0 0 0 16 16 16 44.8 0 60.8 0 0 0 0 0 0l-108.8 108.8zM659.2 448c-118.4 0-214.4 96-214.4 214.4s96 214.4 214.4 214.4 214.4-96 214.4-214.4-99.2-214.4-214.4-214.4zM550.4 720l60.8-60.8-60.8-60.8c-12.8-12.8-12.8-35.2 0-48s35.2-12.8 48 0l60.8 57.6 60.8-57.6c12.8-12.8 35.2-12.8 48 0s12.8 35.2 0 48l-64 64 60.8 60.8c12.8 16 9.6 35.2-3.2 48-12.8 9.6-28.8 9.6-41.6 0l-64-64-57.6 60.8c-16 12.8-35.2 9.6-48-3.2-9.6-12.8-9.6-32 0-44.8z" />
</font>
</defs>
</svg>
